<svg xmlns="http://www.w3.org/2000/svg" xmlns:xlink="http://www.w3.org/1999/xlink" contentStyleType="text/css" data-diagram-type="DESCRIPTION" height="944.7917px" preserveAspectRatio="none" style="width:1688px;height:944px;" version="1.1" viewBox="0 0 1688 944" width="1688.5417px" zoomAndPan="magnify"><?plantuml 1.2026.3beta4?><defs><linearGradient id="g1azzs2k3w2rik0" x1="50%" x2="50%" y1="0%" y2="100%"><stop offset="0%" stop-color="#F18E3E"/><stop offset="100%" stop-color="#EC7211"/></linearGradient></defs><g><!--cluster EspacePSC--><g class="cluster" data-qualified-name="EspacePSC" data-source-line="16" id="ent0003"><rect fill="none" height="922.9167" rx="4.1667" ry="4.1667" style="stroke:#4E5D6C;stroke-width:2.0833;" width="1431.7292" x="242.4271" y="7.2917"/><text fill="#4E5D6C" font-family="'Verdana'" font-size="12.5" font-weight="700" lengthAdjust="spacing" textLength="174.9084" x="870.8374" y="26.1861">Espace de confiance PSC</text></g><!--cluster Environnement Integrateur--><g class="cluster" data-qualified-name="EspacePSC.Environnement Integrateur" data-source-line="18" id="ent0004"><polygon fill="none" points="267.4271,241.6667,277.8438,231.25,1639.8125,231.25,1639.8125,894.7917,1629.3958,905.2083,267.4271,905.2083,267.4271,241.6667" style="stroke:#4E5D6C;stroke-width:1.0417;"/><line style="stroke:#4E5D6C;stroke-width:1.0417;" x1="1629.3958" x2="1639.8125" y1="241.6667" y2="231.25"/><line style="stroke:#4E5D6C;stroke-width:1.0417;" x1="267.4271" x2="1629.3958" y1="241.6667" y2="241.6667"/><line style="stroke:#4E5D6C;stroke-width:1.0417;" x1="1629.3958" x2="1629.3958" y1="241.6667" y2="905.2083"/><text fill="#ABB6C2" font-family="'Verdana'" font-size="12.5" font-weight="700" lengthAdjust="spacing" textLength="192.6941" x="853.1061" y="261.6028">Environnement Integrateur</text></g><!--cluster DockerNet--><g class="cluster" data-qualified-name="EspacePSC.Environnement Integrateur.DockerNet" data-source-line="20" id="ent0006"><rect fill="#278EF5" height="487.5" rx="4.1667" ry="4.1667" style="stroke:#005C96;stroke-width:1.0417;" width="928.9688" x="685.8438" y="288.5417"/><line style="stroke:#005C96;stroke-width:1.0417;" x1="685.8438" x2="1614.8125" y1="332.2266" y2="332.2266"/><text fill="#FFFFFF" font-family="'Verdana'" font-size="12.5" font-weight="700" lengthAdjust="spacing" textLength="113.208" x="1093.7241" y="307.4361">Docker Network</text><text fill="#FFFFFF" font-family="'Verdana'" font-size="12.5" font-weight="700" lengthAdjust="spacing" textLength="61.8591" x="1119.3986" y="321.9869">(private)</text></g><!--cluster devbox--><g class="cluster" data-qualified-name="EspacePSC.Environnement Integrateur.DockerNet.devbox" data-source-line="22" id="ent0007"><rect fill="#278EF5" height="362.5" rx="4.1667" ry="4.1667" style="stroke:#4E5D6C;stroke-width:1.0417;" width="249.7917" x="727.5104" y="371.875"/><rect fill="#278EF5" height="10.4167" style="stroke:#4E5D6C;stroke-width:1.0417;" width="15.625" x="956.4688" y="377.0833"/><rect fill="#278EF5" height="2.0833" style="stroke:#4E5D6C;stroke-width:1.0417;" width="4.1667" x="954.3854" y="379.1667"/><rect fill="#278EF5" height="2.0833" style="stroke:#4E5D6C;stroke-width:1.0417;" width="4.1667" x="954.3854" y="383.3333"/><text fill="#FFFFFF" font-family="'Verdana'" font-size="12.5" font-weight="700" lengthAdjust="spacing" textLength="99.1577" x="802.8274" y="402.2278">DevBox-Sant&#233;</text></g><!--entity PSC--><g class="entity" data-qualified-name="EspacePSC.PSC" data-source-line="33" id="ent0013"><path d="M1482.3933,166.8158 C1485.0857,160.292 1491.5279,160.6785 1495.238,165.6818 C1498.8141,160.2165 1502.8513,159.7343 1506.515,165.5947 C1508.0725,158.9615 1513.7729,158.0596 1518.234,162.5303 C1520.4762,155.9382 1526.9189,155.3405 1531.1366,160.3292 C1533.9921,155.113 1538.185,154.5371 1541.5241,159.8523 C1544.9881,152.6956 1549.2341,152.8218 1554.3569,158.1469 C1558.8732,153.8697 1563.1001,154.1424 1565.5479,160.354 C1569.8898,154.768 1574.5061,155.4811 1578.0111,161.2709 C1581.2907,156.61 1585.9797,157.6417 1588.2083,162.4077 C1592.7356,157.0172 1598.2178,157.294 1601.27,164.0004 C1605.39,158.7844 1610.897,159.4405 1613.3294,165.7641 C1616.8123,161.2508 1622.2041,160.9483 1624.7513,166.7957 C1636.678,169.6434 1638.9374,178.6416 1630.0898,186.9831 C1639.0778,196.5798 1634.8869,204.3884 1623.8004,207.9689 C1619.9662,213.4203 1615.6556,213.9667 1612.1994,207.5979 C1608.3347,212.9702 1604.6034,214.2293 1600.2955,208.0547 C1597.3007,213.3974 1592.0359,213.3988 1588.5765,208.5911 C1584.5582,213.7577 1581.4683,212.3516 1578.0939,207.8902 C1574.4796,214.3337 1568.6096,213.2912 1565.1541,207.7192 C1561.6341,214.1931 1556.5006,214.456 1552.8296,207.8616 C1549.8837,212.9673 1546.2173,213.4251 1542.7095,208.4243 C1538.2904,214.3603 1534.0892,214.0914 1530.3695,207.7229 C1527.9031,213.8689 1522.4849,213.2601 1519.2747,208.4781 C1515.1803,215.4434 1508.5984,213.7249 1505.5634,207.3862 C1502.1454,213.9653 1498.3707,213.1998 1493.7244,208.6986 C1489.4259,212.8116 1486.197,211.919 1483.42,206.9687 C1472.8151,203.8403 1470.2832,196.0647 1477.7695,187.6459 C1467.9481,179.9117 1472.6196,170.2003 1482.3933,166.8158" fill="none" style="stroke:#4E5D6C;stroke-width:1.0417;"/><text fill="#4E5D6C" font-family="'Verdana'" font-size="12.5" lengthAdjust="spacing" textLength="116.0645" x="1494.4167" y="190.7903">Pro Sant&#233; Connect</text></g><!--entity services--><g class="entity" data-qualified-name="EspacePSC.services" data-source-line="34" id="ent0014"><path d="M1457.6566,60.3078 C1461.2074,54.3729 1466.6868,55.2276 1469.8516,60.7197 C1472.9972,52.9845 1479.7237,53.5976 1483.8654,59.7118 C1486.6379,53.188 1492.904,51.6727 1497.5396,57.6784 C1503.4941,49.8622 1508.1653,51.768 1512.7818,59.0309 C1516.6198,52.0854 1520.9964,53.4071 1525.3398,58.504 C1528.2453,50.2858 1533.3304,49.642 1539.2392,55.5486 C1544.5794,48.3235 1549.8551,50.2585 1553.4707,57.2724 C1558.2174,50.3788 1563.4093,50.8524 1568.1944,57.2299 C1573.0846,51.0801 1578.0256,52.6459 1581.5276,58.7415 C1585.7951,53.5016 1589.9354,52.588 1594.2909,58.6422 C1598.2447,51.4445 1603.7263,51.9623 1607.7213,58.6022 C1612.3718,52.1429 1618.6672,52.3241 1623.1243,58.8321 C1628.3465,53.1404 1633.8119,53.7171 1637.329,60.7374 C1641.7495,54.8623 1646.8922,54.1711 1651.6625,60.3204 C1659.2647,63.4142 1659.7423,68.2373 1654.1408,73.7649 C1661.1103,77.8071 1661.5534,83.5174 1655.6871,88.8732 C1660.2824,94.0855 1658.5581,98.5395 1651.9722,100.0281 C1658.2008,105.2904 1659.7817,110.4707 1651.4125,115.1942 C1645.8354,122.5528 1640.9641,120.7462 1636.4504,114.0614 C1633.5141,121.1446 1627.7905,121.8189 1622.7174,116.4105 C1619.1317,123.3665 1613.5054,123.4215 1609.7907,116.531 C1605.1381,124.2381 1598.8413,124.005 1594.7304,116.0114 C1590.1416,122.1568 1584.7504,122.23 1580.1548,116.0193 C1576.6227,121.3102 1571.7135,121.35 1568.6023,115.5798 C1563.8767,123.5355 1557.5175,123.502 1552.5667,115.8106 C1548.8631,122.7266 1542.4192,121.2785 1539.4107,115.1117 C1535.4878,123.2685 1531.1043,122.16 1525.4861,116.8669 C1521.6294,122.2744 1516.3413,120.9889 1513.5648,115.6668 C1509.6791,123.5111 1503.6687,123.4436 1499.3813,116.0404 C1495.5848,122.0262 1490.0484,121.8281 1485.876,116.4886 C1480.9433,123.2796 1475.3543,121.8468 1471.9642,114.9237 C1466.9926,121.4957 1460.0818,121.5084 1456.2242,113.704 C1449.8126,110.6416 1449.1735,106.9342 1454.4125,102.0592 C1446.2641,97.902 1445.9481,93.6715 1453.0139,88.0008 C1447.4655,82.6287 1449.0533,77.1627 1455.8905,74.4128 C1449.9543,69.7151 1451.1869,63.4521 1457.6566,60.3078" fill="none" style="stroke:#4E5D6C;stroke-width:1.0417;"/><text fill="#4E5D6C" font-family="'Verdana'" font-size="12.5" lengthAdjust="spacing" textLength="164.4409" x="1468.25" y="83.509">Fournisseurs Services PSC</text><text fill="#4E5D6C" font-family="'Verdana'" font-size="12.5" lengthAdjust="spacing" textLength="121.6492" x="1468.25" y="98.0598">DMP, INSi, ePresc...</text></g><!--entity Backend--><g class="entity" data-qualified-name="EspacePSC.Environnement Integrateur.Backend" data-source-line="19" id="ent0005"><rect fill="url(#g1azzs2k3w2rik0)" height="56.2174" rx="4.1667" ry="4.1667" style="stroke:#EC7211;stroke-width:1.0417;" width="205.9163" x="284.0938" y="803.1458"/><rect fill="url(#g1azzs2k3w2rik0)" height="10.4167" style="stroke:#EC7211;stroke-width:1.0417;" width="15.625" x="469.1768" y="808.3542"/><rect fill="url(#g1azzs2k3w2rik0)" height="2.0833" style="stroke:#EC7211;stroke-width:1.0417;" width="4.1667" x="467.0934" y="810.4375"/><rect fill="url(#g1azzs2k3w2rik0)" height="2.0833" style="stroke:#EC7211;stroke-width:1.0417;" width="4.1667" x="467.0934" y="814.6042"/><text fill="#FFFFFF" font-family="'Verdana'" font-size="12.5" lengthAdjust="spacing" textLength="153.833" x="304.9271" y="840.7903">Backend Solution m&#233;tier</text></g><!--entity proxy--><g class="entity" data-qualified-name="EspacePSC.Environnement Integrateur.DockerNet.proxy" data-source-line="27" id="ent0010"><rect fill="#2F78CC" height="70.7682" rx="4.1667" ry="4.1667" style="stroke:#EC7211;stroke-width:1.0417;" width="187.8194" x="1133.5521" y="458.3646"/><rect fill="#2F78CC" height="10.4167" style="stroke:#EC7211;stroke-width:1.0417;" width="15.625" x="1300.5382" y="463.5729"/><rect fill="#2F78CC" height="2.0833" style="stroke:#EC7211;stroke-width:1.0417;" width="4.1667" x="1298.4548" y="465.6563"/><rect fill="#2F78CC" height="2.0833" style="stroke:#EC7211;stroke-width:1.0417;" width="4.1667" x="1298.4548" y="469.8229"/><text fill="#FFFFFF" font-family="'Verdana'" font-size="12.5" lengthAdjust="spacing" textLength="135.7361" x="1154.3854" y="496.009">DevBox-Sant&#233; eProxy</text><text fill="#FFFFFF" font-family="'Verdana'" font-size="12.5" lengthAdjust="spacing" textLength="70.9839" x="1154.3854" y="510.5598">(API / Auth)</text></g><!--entity mongo--><g class="entity" data-qualified-name="EspacePSC.Environnement Integrateur.DockerNet.mongo" data-source-line="28" id="ent0011"><path d="M1506.7604,512 C1506.7604,501.5833 1552.4544,501.5833 1552.4544,501.5833 C1552.4544,501.5833 1598.1484,501.5833 1598.1484,512 L1598.1484,546.3424 C1598.1484,556.7591 1552.4544,556.7591 1552.4544,556.7591 C1552.4544,556.7591 1506.7604,556.7591 1506.7604,546.3424 L1506.7604,512" fill="url(#g1azzs2k3w2rik0)" style="stroke:#EC7211;stroke-width:1.0417;"/><path d="M1506.7604,512 C1506.7604,522.4167 1552.4544,522.4167 1552.4544,522.4167 C1552.4544,522.4167 1598.1484,522.4167 1598.1484,512" fill="none" style="stroke:#EC7211;stroke-width:1.0417;"/><text fill="#4E5D6C" font-family="'Verdana'" font-size="12.5" lengthAdjust="spacing" textLength="60.1379" x="1522.3854" y="543.3944">MongoDB</text></g><!--entity redis--><g class="entity" data-qualified-name="EspacePSC.Environnement Integrateur.DockerNet.redis" data-source-line="29" id="ent0012"><path d="M1519.6771,420.3333 C1519.6771,409.9167 1552.4499,409.9167 1552.4499,409.9167 C1552.4499,409.9167 1585.2227,409.9167 1585.2227,420.3333 L1585.2227,454.6758 C1585.2227,465.0924 1552.4499,465.0924 1552.4499,465.0924 C1552.4499,465.0924 1519.6771,465.0924 1519.6771,454.6758 L1519.6771,420.3333" fill="url(#g1azzs2k3w2rik0)" style="stroke:#EC7211;stroke-width:1.0417;"/><path d="M1519.6771,420.3333 C1519.6771,430.75 1552.4499,430.75 1552.4499,430.75 C1552.4499,430.75 1585.2227,430.75 1585.2227,420.3333" fill="none" style="stroke:#EC7211;stroke-width:1.0417;"/><text fill="#4E5D6C" font-family="'Verdana'" font-size="12.5" lengthAdjust="spacing" textLength="34.2957" x="1535.3021" y="451.7278">Redis</text></g><!--entity dbx_dmp--><g class="entity" data-qualified-name="EspacePSC.Environnement Integrateur.DockerNet.devbox.dbx_dmp" data-source-line="23" id="ent0008"><rect fill="#35D9C0" height="128.9714" rx="4.1667" ry="4.1667" style="stroke:#EC7211;stroke-width:1.0417;" width="170.7235" x="767.0417" y="580.3021"/><rect fill="#35D9C0" height="10.4167" style="stroke:#EC7211;stroke-width:1.0417;" width="15.625" x="916.9318" y="585.5104"/><rect fill="#35D9C0" height="2.0833" style="stroke:#EC7211;stroke-width:1.0417;" width="4.1667" x="914.8485" y="587.5938"/><rect fill="#35D9C0" height="2.0833" style="stroke:#EC7211;stroke-width:1.0417;" width="4.1667" x="914.8485" y="591.7604"/><text fill="#FFFFFF" font-family="'Verdana'" font-size="12.5" lengthAdjust="spacing" textLength="118.6401" x="787.875" y="617.9465">DevBoxSant&#233;_DMP</text><text fill="#FFFFFF" font-family="'Verdana'" font-size="12.5" lengthAdjust="spacing" textLength="3.9734" x="787.875" y="632.4973">&#160;</text><text fill="#FFFFFF" font-family="'Verdana'" font-size="12.5" lengthAdjust="spacing" textLength="103.3875" x="791.8484" y="647.0481">Validation/CI-SIS</text><text fill="#FFFFFF" font-family="'Verdana'" font-size="12.5" lengthAdjust="spacing" textLength="57.2388" x="791.8484" y="661.5989">CDA/XDS</text><text fill="#FFFFFF" font-family="'Verdana'" font-size="12.5" lengthAdjust="spacing" textLength="72.3083" x="791.8484" y="676.1497">SOAP/SAML</text><text fill="#FFFFFF" font-family="'Verdana'" font-size="12.5" lengthAdjust="spacing" textLength="75.8667" x="791.8484" y="690.7004">Schematron</text></g><!--entity dbx_ins--><g class="entity" data-qualified-name="EspacePSC.Environnement Integrateur.DockerNet.devbox.dbx_ins" data-source-line="24" id="ent0009"><rect fill="#07A2CF" height="99.8698" rx="4.1667" ry="4.1667" style="stroke:#EC7211;stroke-width:1.0417;" width="199.7945" x="752.5104" y="443.8125"/><rect fill="#07A2CF" height="10.4167" style="stroke:#EC7211;stroke-width:1.0417;" width="15.625" x="931.4716" y="449.0208"/><rect fill="#07A2CF" height="2.0833" style="stroke:#EC7211;stroke-width:1.0417;" width="4.1667" x="929.3883" y="451.1042"/><rect fill="#07A2CF" height="2.0833" style="stroke:#EC7211;stroke-width:1.0417;" width="4.1667" x="929.3883" y="455.2708"/><text fill="#FFFFFF" font-family="'Verdana'" font-size="12.5" lengthAdjust="spacing" textLength="109.3872" x="773.3438" y="481.4569">DevBoxSant&#233; INS</text><text fill="#FFFFFF" font-family="'Verdana'" font-size="12.5" lengthAdjust="spacing" textLength="3.9734" x="773.3438" y="496.0077">&#160;</text><text fill="#FFFFFF" font-family="'Verdana'" font-size="12.5" lengthAdjust="spacing" textLength="143.7378" x="777.3171" y="510.5585">Validation/CI-TLSI-AMO</text><text fill="#FFFFFF" font-family="'Verdana'" font-size="12.5" lengthAdjust="spacing" textLength="72.3083" x="777.3171" y="525.1093">SOAP/SAML</text></g><!--entity Client--><g class="entity" data-qualified-name="Client" data-source-line="15" id="ent0002"><ellipse cx="72.2534" cy="789.0938" fill="url(#g1azzs2k3w2rik0)" rx="8.3333" ry="8.3333" style="stroke:#EC7211;stroke-width:1.0417;"/><path d="M72.2534,797.4271 L72.2534,825.5521 M58.7118,805.7604 L85.7951,805.7604 M72.2534,825.5521 L58.7118,841.1771 M72.2534,825.5521 L85.7951,841.1771" fill="none" style="stroke:#EC7211;stroke-width:1.0417;"/><text fill="#4E5D6C" font-family="'Verdana'" font-size="12.5" lengthAdjust="spacing" textLength="64.2944" x="6.25" y="860.0715">Utilisateur</text><text fill="#4E5D6C" font-family="'Verdana'" font-size="12.5" lengthAdjust="spacing" textLength="132.0068" x="6.25" y="874.6223">(navigateur / mobile)</text></g><!--link Client to Backend--><g class="link" data-entity-1="ent0002" data-entity-2="ent0005" data-link-type="dependency" data-source-line="38" id="lnk15"><path d="M143.8646,831.25 C185.1146,831.25 231.6563,831.25 277.4063,831.25" fill="none" id="Client-to-Backend" style="stroke:#EC7211;stroke-width:3.125;"/><polygon fill="#EC7211" points="283.6563,831.25,274.2813,827.0833,278.4479,831.25,274.2813,835.4167,283.6563,831.25" style="stroke:#EC7211;stroke-width:3.125;"/><text fill="#4E5D6C" font-family="'Verdana'" font-size="12.5" lengthAdjust="spacing" textLength="38.7207" x="180.9688" y="823.0611">HTTPs</text></g><!--link Backend to devbox--><g class="link" data-entity-1="ent0005" data-entity-2="ent0007" data-link-type="dependency" data-source-line="39" id="lnk16"><path d="M398.8021,802.7188 C429.0938,726.4896 523.3021,517.7083 677.5104,427.0833 C685.7591,422.2344 694.61,418.2791 703.7901,415.0711 C708.3801,413.4671 713.0524,412.0498 717.7728,410.8011 C720.133,410.1767 722.5053,409.5945 724.8853,409.052 C725.4803,408.9164 719.9708,410.1219 720.5668,409.9913" fill="none" id="Backend-to-devbox" style="stroke:#EC7211;stroke-width:3.125;"/><polygon fill="#EC7211" points="726.6717,408.6527,716.6219,406.5906,721.5843,409.7682,718.4067,414.7305,726.6717,408.6527" style="stroke:#EC7211;stroke-width:3.125;"/><text fill="#4E5D6C" font-family="'Verdana'" font-size="12.5" lengthAdjust="spacing" textLength="84.6008" x="551.0669" y="411.6028">HTTPs (REST)</text><text fill="#4E5D6C" font-family="'Verdana'" font-size="12.5" lengthAdjust="spacing" textLength="135.6873" x="527.5104" y="426.1536">/dmp, /insi, /epresc ...</text></g><!--link dbx_dmp to proxy--><g class="link" data-entity-1="ent0008" data-entity-2="ent0010" data-link-type="dependency" data-source-line="40" id="lnk17"><path d="M938.0833,610.5208 C997.7188,586.3646 1071.6238,556.44 1132.1134,531.94" fill="none" id="dbx_dmp-to-proxy" style="stroke:#EC7211;stroke-width:3.125;"/><polygon fill="#EC7211" points="1137.9063,529.5938,1127.6527,529.2513,1133.0788,531.549,1130.7811,536.9751,1137.9063,529.5938" style="stroke:#EC7211;stroke-width:3.125;"/><text fill="#4E5D6C" font-family="'Verdana'" font-size="12.5" lengthAdjust="spacing" textLength="79.7974" x="1016.8854" y="539.7278">HTTP (SOAP)</text></g><!--link dbx_ins to proxy--><g class="link" data-entity-1="ent0009" data-entity-2="ent0010" data-link-type="dependency" data-source-line="41" id="lnk18"><path d="M952.4167,493.75 C1008.4167,493.75 1071.7917,493.75 1126.8438,493.75" fill="none" id="dbx_ins-to-proxy" style="stroke:#EC7211;stroke-width:3.125;"/><polygon fill="#EC7211" points="1133.0938,493.75,1123.7188,489.5833,1127.8854,493.75,1123.7188,497.9167,1133.0938,493.75" style="stroke:#EC7211;stroke-width:3.125;"/><text fill="#4E5D6C" font-family="'Verdana'" font-size="12.5" lengthAdjust="spacing" textLength="79.7974" x="1016.8854" y="485.5611">HTTP (SOAP)</text></g><!--link Backend to proxy--><g class="link" data-entity-1="ent0005" data-entity-2="ent0010" data-link-type="dependency" data-source-line="42" id="lnk19"><path d="M490.3438,854.0208 C618.3854,876.9063 840.5208,897.625 1002.3021,810.4167 C1117.3229,748.4167 1184.4495,604.3547 1211.3245,535.386" fill="none" id="Backend-to-proxy" style="stroke:#EC7211;stroke-width:3.125;"/><polygon fill="#EC7211" points="1213.5938,529.5625,1206.3076,536.7849,1211.7027,534.4154,1214.0722,539.8106,1213.5938,529.5625" style="stroke:#EC7211;stroke-width:3.125;"/><text fill="#4E5D6C" font-family="'Verdana'" font-size="12.5" lengthAdjust="spacing" textLength="3.9734" x="850.4501" y="743.8944">&#160;</text><text fill="#4E5D6C" font-family="'Verdana'" font-size="12.5" lengthAdjust="spacing" textLength="3.9734" x="850.4501" y="758.4452">&#160;</text><text fill="#4E5D6C" font-family="'Verdana'" font-size="12.5" lengthAdjust="spacing" textLength="3.9734" x="850.4501" y="772.996">&#160;</text><text fill="#4E5D6C" font-family="'Verdana'" font-size="12.5" lengthAdjust="spacing" textLength="38.7207" x="833.0764" y="787.5468">HTTPs</text><text fill="#4E5D6C" font-family="'Verdana'" font-size="12.5" lengthAdjust="spacing" textLength="137.561" x="783.6563" y="802.0976">(Authentification PSC)</text></g><!--link proxy to PSC--><g class="link" data-entity-1="ent0010" data-entity-2="ent0013" data-link-type="dependency" data-source-line="44" id="lnk20"><path d="M1266.1771,457.8958 C1331.0625,396.1562 1458.0662,275.2877 1517.0662,219.1419" fill="none" id="proxy-to-PSC" style="stroke:#EC7211;stroke-width:3.125;"/><polygon fill="#EC7211" points="1521.5938,214.8333,1511.93,218.2778,1517.8208,218.4238,1517.6748,224.3145,1521.5938,214.8333" style="stroke:#EC7211;stroke-width:3.125;"/><text fill="#4E5D6C" font-family="'Verdana'" font-size="12.5" lengthAdjust="spacing" textLength="34.7107" x="1367.2083" y="313.6861">mTLS</text></g><!--link proxy to mongo--><g class="link" data-entity-1="ent0010" data-entity-2="ent0011" data-link-type="dependency" data-source-line="45" id="lnk21"><path d="M1321.4688,503.9479 C1382.2083,510.6042 1452.6102,518.3286 1500.2561,523.5577" fill="none" id="proxy-to-mongo" style="stroke:#EC7211;stroke-width:3.125;"/><polygon fill="#EC7211" points="1506.4688,524.2396,1497.6043,519.075,1501.2915,523.6714,1496.6951,527.3586,1506.4688,524.2396" style="stroke:#EC7211;stroke-width:3.125;"/></g><!--link proxy to redis--><g class="link" data-entity-1="ent0010" data-entity-2="ent0012" data-link-type="dependency" data-source-line="46" id="lnk22"><path d="M1321.5104,486.875 C1351.8333,483.8542 1385.5625,479.6563 1416.1667,473.9583 C1451.9063,467.3021 1486.0406,457.7955 1513.2385,449.535" fill="none" id="proxy-to-redis" style="stroke:#EC7211;stroke-width:3.125;"/><polygon fill="#EC7211" points="1519.2188,447.7188,1509.0375,446.4564,1514.2352,449.2323,1511.4592,454.43,1519.2188,447.7188" style="stroke:#EC7211;stroke-width:3.125;"/></g><!--link proxy to services--><g class="link" data-entity-1="ent0010" data-entity-2="ent0014" data-link-type="dependency" data-source-line="47" id="lnk23"><path d="M1242.7188,457.9583 C1271.7813,388.6667 1344.1042,234.75 1447.4167,140.625 C1454.7813,133.9062 1457.869,131.1202 1466.567,125.5993" fill="none" id="proxy-to-services" style="stroke:#EC7211;stroke-width:3.125;"/><polygon fill="#EC7211" points="1471.8438,122.25,1461.6957,123.7561,1467.4464,125.0411,1466.1615,130.7919,1471.8438,122.25" style="stroke:#EC7211;stroke-width:3.125;"/><text fill="#4E5D6C" font-family="'Verdana'" font-size="12.5" lengthAdjust="spacing" textLength="34.7107" x="1367.3894" y="150.1444">mTLS</text><text fill="#4E5D6C" font-family="'Verdana'" font-size="12.5" lengthAdjust="spacing" textLength="51.7395" x="1358.875" y="164.6952">API calls</text></g><?plantuml-src ZLFRRXen47ttLqpeGuCK0WtbqZnKMdQ9kXAN5KjGAY55nck8bSL6NaEegdnGlYC_rl5UIPLKvG7PSyxC6S-SFJCFVCk1FYKDfQdSS78MyRMG7BpXOZ2zktUde-aCFbtr-dpTAS5XC9lU_Ip1TQ_FM9Kv3WgatV6-kQqI6OTXWNZ3ZjUl47zI8gsUS-NUb8WRL3djhqxRBP65FtT6mmBit7ZTdbE2GUWMo7hTwtMhtft0NHGGw_9kDwgWoUJMyMTbpLxtIvjNJNhEtAcAqdwhHMA-Dc0KQB5vC109pPaHIX92cL4QQhT6n2AXXk_rKfvBUX2Rz09DsAgLY7cz1ZG1DnPS6cApSGanXzemsL768UB0b5mBAbdwffITONY3tuH85LcwF0YjfCHbIWE-D7oZKw4QSW1_J6rtIbgmDg3iaSi8GXNlRREmVNqnWkkqTWxQ74Pr13LFOK33X9idfH_n4Jij3bWwQpn34NphbqpJg0r7V-dy-bSR7ZyCrB4HKcbUNz9Y4J-irF6zIX-cPzdtQBcbN4fOq5X4r3wgwVgDq0ynvdfEyywpft3g1CtG6O_icQ7ngS6PPTAhutsqtLNU_HzPwzftPEUZq6yuu-cfOYaYP5APlHHv9jN_lyO4FD3g-0ktu0G-UiZPcuTi4JiRV_DTbiMmCxgY2RfahEH6UOCqOMlFxt1cF199oj3sb3VsJ0YBrHxzW0r0tenh3STCIaOt5emRjTTI90cwBu6GwuDWF2N0Kk9yB-pxnOLz2a_OvUKbf0MId6YbFiDDh9uIadqMq6XyBtm9r_1ZFWyIKjmjblicX-1yDWpdTHHhuaOle8aZHxactrazG45IRDicPuFBSk7SBgmEfDZKXuHJ-O9WhR2KQGzsGRWQR5wi1KkTOGTG9oGZspGxa6lOebjEWkbMu2IGBW5E8yMWykIbj5PWD8wJFm00?></g></svg>