<?xml version="1.0" encoding="UTF-8"?>
<svg id="Calque_2" xmlns="http://www.w3.org/2000/svg" version="1.1" viewBox="0 0 499.9 499.2">
  <!-- Generator: Adobe Illustrator 29.6.1, SVG Export Plug-In . SVG Version: 2.1.1 Build 9)  -->
  <defs>
    <style>
      .st0 {
        fill: none;
      }

      .st1 {
        fill: #224e71;
      }

      .st2 {
        fill: #4482c3;
      }

      .st3 {
        fill: #fff;
      }
    </style>
  </defs>
  <path class="st2" d="M437.8,399.9l-150,88.8c-23.1,13.7-51.8,14-75.3.8l-151.9-85.6c-23.4-13.2-38-37.9-38.3-64.8l-1.8-174.3c-.3-26.9,13.8-51.9,36.9-65.6L207.4,10.5c23.1-13.7,51.8-14,75.3-.8l151.9,85.6c23.4,13.2,38,37.9,38.3,64.8l1.8,174.3c.3,26.9-13.8,51.9-36.9,65.6Z"/>
  <path class="st0" d="M218.1,322.8"/>
  <path class="st0" d="M218.1,133.4"/>
  <g>
    <path class="st3" d="M298.7,278.5l-18.6-63.1c-6.3-21.3-32.8-29.5-47.4-14.9l-44.6,44.3c-14.6,14.8-6.3,41.1,14.9,47.4l63.2,18.8c20.7,6.1,38.6-11.8,32.5-32.5Z"/>
    <circle class="st1" cx="107.4" cy="252.7" r="26.8"/>
    <circle class="st1" cx="251.9" cy="397.8" r="26.8"/>
    <circle class="st1" cx="388.2" cy="246.6" r="26.8"/>
    <circle class="st1" cx="241.5" cy="99.2" r="26.8"/>
    <g>
      <path class="st3" d="M142.1,287.7c-3.4-3.4-9-3.4-12.4,0-3.4,3.4-3.4,9,0,12.4l24.9,24.9c1.7,1.7,4,2.6,6.2,2.6s4.5-.9,6.2-2.6c3.4-3.4,3.4-9,0-12.4l-24.9-24.9Z"/>
      <path class="st3" d="M346.3,214.7c1.7,1.7,4,2.6,6.2,2.6s4.5-.9,6.2-2.6c3.4-3.4,3.4-9,0-12.4l-24.9-24.9c-3.4-3.4-9-3.4-12.4,0-3.4,3.4-3.4,9,0,12.4l24.9,24.9Z"/>
      <path class="st3" d="M298.1,165.9c1.7,1.7,4,2.6,6.2,2.6s4.5-.9,6.2-2.6c3.4-3.4,3.4-9,0-12.4l-24.9-24.9c-3.4-3.4-9-3.4-12.4,0-3.4,3.4-3.4,9,0,12.4l24.9,24.9Z"/>
      <path class="st3" d="M310.1,335.5l-24.9,24.9c-3.4,3.4-3.4,9,0,12.4,1.7,1.7,4,2.6,6.2,2.6s4.5-.9,6.2-2.6l24.9-24.9c3.4-3.4,3.4-9,0-12.4-3.4-3.4-9-3.4-12.4,0Z"/>
      <path class="st3" d="M154.6,179.9l-24.9,24.9c-3.4,3.4-3.4,9,0,12.4,1.7,1.7,4,2.6,6.2,2.6s4.5-.9,6.2-2.6l24.9-24.9c3.4-3.4,3.4-9,0-12.4-3.4-3.4-9-3.4-12.4,0Z"/>
      <path class="st3" d="M201.3,132.3l-24.9,24.9c-3.4,3.4-3.4,9,0,12.4,1.7,1.7,4,2.6,6.2,2.6s4.5-.9,6.2-2.6l24.9-24.9c3.4-3.4,3.4-9,0-12.4-3.4-3.4-9-3.4-12.4,0Z"/>
      <path class="st3" d="M357.5,286c-.5.6-1,1.1-1.5,1.6l-22.9,22.9c-3.4,3.4-3.4,9,0,12.4,1.7,1.7,4,2.6,6.2,2.6s4.5-.9,6.2-2.6l22.9-22.9c.8-.8,1.5-1.5,2.2-2.3,3.2-3.6,2.9-9.2-.7-12.4-3.6-3.2-9.2-2.9-12.4.7Z"/>
      <path class="st3" d="M193.1,335.5c-3.4-3.4-9-3.4-12.4,0-3.4,3.4-3.4,9,0,12.4l24.9,24.9c1.7,1.7,4,2.6,6.2,2.6s4.5-.9,6.2-2.6c3.4-3.4,3.4-9,0-12.4l-24.9-24.9Z"/>
    </g>
  </g>
</svg>