<?xml version="1.0" encoding="UTF-8"?>
<svg id="Calque_2" xmlns="http://www.w3.org/2000/svg" version="1.1" viewBox="0 0 499.9 499.2">
  <!-- Generator: Adobe Illustrator 29.6.1, SVG Export Plug-In . SVG Version: 2.1.1 Build 9)  -->
  <defs>
    <style>
      .st0 {
        fill: #224e71;
      }

      .st1 {
        fill: #4482c3;
      }

      .st2 {
        fill: #fff;
      }

      .st3 {
        fill: #8fc0e8;
      }
    </style>
  </defs>
  <path class="st1" d="M440.2,399.9l-150,88.8c-23.1,13.7-51.8,14-75.3.8l-151.9-85.6c-23.4-13.2-38-37.9-38.3-64.8l-1.8-174.3c-.3-26.9,13.8-51.9,36.9-65.6L209.8,10.5c23.1-13.7,51.8-14,75.3-.8l151.9,85.6c23.4,13.2,38,37.9,38.3,64.8l1.8,174.3c.3,26.9-13.8,51.9-36.9,65.6Z"/>
  <g>
    <path class="st2" d="M282.7,186.9h-65.4c-13.6,0-24.6,11-24.6,24.6v84.1c0,2.2,1.2,4.2,3.1,5.2.9.5,1.8.7,2.8.7s2.3-.3,3.3-1l23.3-15.5c2.1-1.4,4.6-2.1,7.1-2.1h50.4c13.6,0,24.6-11,24.6-24.6v-46.7c0-13.6-11-24.6-24.6-24.6ZM217.6,211.2h37.9c4.3,0,7.8,3.5,7.8,7.8s-3.5,7.8-7.8,7.8h-37.9c-4.3,0-7.8-3.5-7.8-7.8s3.5-7.8,7.8-7.8ZM290.2,248.8c0,4.3-3.5,7.8-7.8,7.8h-64.8c-4.3,0-7.8-3.5-7.8-7.8h0c0-4.3,3.5-7.8,7.8-7.8h64.8c4.3,0,7.8,3.5,7.8,7.8h0Z"/>
    <path class="st2" d="M144.5,221.9h-48.9c-10.1,0-18.4,8.2-18.4,18.4v62.8c0,1.6.9,3.1,2.3,3.9.6.3,1.4.5,2.1.5s1.7-.2,2.4-.7l17.4-11.6c1.6-1.1,3.4-1.6,5.3-1.6h37.7c10.1,0,18.4-8.2,18.4-18.4v-34.9c0-10.1-8.2-18.4-18.4-18.4ZM131.3,268.2c0,3.2-2.6,5.9-5.9,5.9h-29.6c-3.2,0-5.9-2.6-5.9-5.9h0c0-3.2,2.6-5.9,5.9-5.9h29.6c3.2,0,5.9,2.6,5.9,5.9h0ZM144.3,251.8h-48.4c-3.2,0-5.9-2.6-5.9-5.9s2.6-5.9,5.9-5.9h48.4c3.2,0,5.9,2.6,5.9,5.9s-2.6,5.9-5.9,5.9Z"/>
    <path class="st2" d="M404.3,217h-48.9c-10.1,0-18.4,8.2-18.4,18.4v34.9c0,10.1,8.2,18.4,18.4,18.4h37.7c1.9,0,3.7.6,5.3,1.6l17.4,11.6c.7.5,1.6.7,2.4.7s1.4-.2,2.1-.5c1.4-.8,2.3-2.3,2.3-3.9v-62.8c0-10.1-8.2-18.4-18.4-18.4ZM409.9,263.3c0,3.2-2.6,5.9-5.9,5.9h-29.6c-3.2,0-5.9-2.6-5.9-5.9h0c0-3.2,2.6-5.9,5.9-5.9h29.6c3.2,0,5.9,2.6,5.9,5.9h0ZM404.1,246.9h-48.4c-3.2,0-5.9-2.6-5.9-5.9s2.6-5.9,5.9-5.9h48.4c3.2,0,5.9,2.6,5.9,5.9s-2.6,5.9-5.9,5.9Z"/>
  </g>
  <path class="st3" d="M393,323.7H106.9c-17.1,0-30.9,13.8-30.9,30.9s13.8,30.9,30.9,30.9h286.1c17.1,0,30.9-13.8,30.9-30.9s-13.8-30.9-30.9-30.9ZM106.4,372c-9.6,0-17.4-7.8-17.4-17.4s7.8-17.4,17.4-17.4,17.4,7.8,17.4,17.4-7.8,17.4-17.4,17.4ZM154.1,364.5c-5.4,0-9.9-4.4-9.9-9.9s4.4-9.9,9.9-9.9,9.9,4.4,9.9,9.9-4.4,9.9-9.9,9.9ZM201.9,372c-9.6,0-17.4-7.8-17.4-17.4s7.8-17.4,17.4-17.4,17.4,7.8,17.4,17.4-7.8,17.4-17.4,17.4ZM249.6,364.5c-5.4,0-9.9-4.4-9.9-9.9s4.4-9.9,9.9-9.9,9.9,4.4,9.9,9.9-4.4,9.9-9.9,9.9ZM297.4,372c-9.6,0-17.4-7.8-17.4-17.4s7.8-17.4,17.4-17.4,17.4,7.8,17.4,17.4-7.8,17.4-17.4,17.4ZM345.2,364.5c-5.4,0-9.9-4.4-9.9-9.9s4.4-9.9,9.9-9.9,9.9,4.4,9.9,9.9-4.4,9.9-9.9,9.9ZM392.9,372c-9.6,0-17.4-7.8-17.4-17.4s7.8-17.4,17.4-17.4,17.4,7.8,17.4,17.4-7.8,17.4-17.4,17.4Z"/>
  <path class="st0" d="M303.2,124.5l26.9,49.7c1,1.8,1.5,3.8,1.5,5.8.3,4.9-2.1,9.4-6.4,11.9l-2.7,1.6,5.3,22.8,4.6-1.9c14.3-5.9,23.3-20.3,22.5-35.7-.3-5.4-1.8-10.7-4.4-15.4l-26.8-49.7c-4-7.4-10.6-13.3-18.3-16.5l-21.3-8.7c-1.9-.7-3.8-1.3-6-1.8h-.3c-1.9-4.1-4.5-7.6-7.9-10.5-.5-.4-1-.7-1.5-1V2.8c-10.3-3.4-24.5-3.4-33.3-1.7v72.8c-1,.6-2,1.2-2.9,2-3.2,2.7-5.9,6.1-7.7,10l-2.6.6c-2.2.5-4.2,1.1-6,1.8l-21.3,8.7c-7.8,3.2-14.3,9.1-18.3,16.5l-26.8,49.7c-2.6,4.7-4.1,10-4.4,15.4-.8,15.5,8.2,29.8,22.5,35.7l4.6,1.9,5.3-22.8-2.7-1.6c-4.3-2.5-6.8-7-6.4-11.9,0-1.9.5-3.9,1.5-5.8l26.9-49.7c1.5-2.7,3.9-4.8,6.6-6l20.5-8.3c0,.2.1.4.2.6,4.8,10.6,15.4,17.4,26.9,17.4s22-6.7,26.9-17.2l18.7,7.6c2.7,1.2,5.2,3.3,6.6,6Z"/>
</svg>