<?xml version="1.0" encoding="utf-8"?>
<!-- Generator: $$$/GeneralStr/196=Adobe Illustrator 27.6.0, SVG Export Plug-In . SVG Version: 6.00 Build 0)  -->
<svg version="1.1" id="Calque_2_00000104675442367846015060000016185214234218264734_"
	 xmlns="http://www.w3.org/2000/svg" xmlns:xlink="http://www.w3.org/1999/xlink" x="0px" y="0px" viewBox="0 0 500.5 499.8"
	 style="enable-background:new 0 0 500.5 499.8;" xml:space="preserve">
<style type="text/css">
	.st0{fill:#555EA5;}
</style>
<g>
	<polygon class="st0" points="299.1,261.2 294.5,265 299.8,267.1 304.4,263.3 	"/>
	<polygon class="st0" points="332.5,280.3 337.1,276.5 331.8,274.4 327.2,278.1 	"/>
	<path class="st0" d="M312.1,262l-13.4-5.4l-11.8,9.6l13.4,5.4L312.1,262z M292.7,265.3l6.4-5.2l7.2,2.9l-6.4,5.2L292.7,265.3z"/>
	<path class="st0" d="M304.5,255.8l2.9,1.2l-1.8,1.5l3.2,1.3l1.8-1.5l0.9,0.4l-1.8,1.5l3.2,1.3l2.8-2.3l-2-0.8l1.8-1.5l-2-0.8
		l0.8-0.7l2.9,1.2l-1.8,1.5l2,0.8l-1.8,1.5l6.1,2.5l-1.8,1.5l2,0.8l-0.8,0.7l-2.9-1.2l1.8-1.5l-3.2-1.3l-1.8,1.5l-2-0.8l-6.4,5.2
		l2.1,0.8l-0.8,0.7l-2-0.8l-2.8,2.3l3.2,1.3l1.8-1.5l0.9,0.4l-1.8,1.5l2,0.8l-1.8,1.5l3.2,1.3l3.6-2.9l0.9,0.4l-1.8,1.5l2,0.8
		l-1.8,1.5l3.2,1.3l1.8-1.5l2,0.8l6.4-5.2l-3.2-1.3l-3.6,2.9l-0.9-0.4l3.6-2.9l-6.1-2.5l0.8-0.7l8.2,3.3l1.8-1.5l2,0.8l2.8-2.3
		l-2-0.8l0.8-0.7l2,0.8l3.6-2.9l2,0.8l2.8-2.3l-2-0.8l0.8-0.7l2,0.8l1.8-1.5l0.9,0.4l-7.2,5.9l2,0.8l-0.8,0.7l-4.1-1.7l-2.8,2.3
		l13.4,5.4l2.8-2.3l-6.1-2.5l0.8-0.7l2,0.8l5.4-4.4l4.1,1.6l2.8-2.3l-2.2-0.9l1.8-1.5l-3.2-1.3l-1.8,1.5l-2.7-1.1l2.6-2.2l8.2,3.3
		l2.8-2.3l-6.1-2.5l2.6-2.1l4.1,1.6l1.8-1.5l2,0.8l2.8-2.3l-3.2-1.3l-1.8,1.5l-0.9-0.4l1.8-1.5l-4.1-1.6l1.8-1.5l-4.1-1.6l1.8-1.5
		l-5.3-2.1l-1.8,1.5l-2-0.8l-2.8,2.3l4.1,1.6l-0.8,0.7l-2.1-0.8l-1.8,1.5l-2-0.8l-1.8,1.5l-0.9-0.4l1.8-1.5l-4.1-1.6l2.6-2.1
		l0.9,0.4l-1.8,1.5l3.2,1.3l6.4-5.2l-5.3-2.1l-3.6,2.9l-0.9-0.4l1.8-1.5l-2-0.8l1.8-1.5l-3.2-1.3l-2.8,2.3l2,0.8l-2.6,2.1l-2-0.8
		l-2.8,2.3l6.1,2.5l-1.8,1.5l4.1,1.6l-1.8,1.5l2.1,0.8l-0.8,0.7l-8.2-3.3l-1.8,1.5l-0.9-0.4l2.6-2.1l2,0.8l2.8-2.3l-5.3-2.1
		l-3.6,2.9l-2-0.8l-1.8,1.5l-0.9-0.4l1.8-1.5L319,245l-1.8,1.5l-4.1-1.6l-2.8,2.3l6.2,2.5l-0.8,0.7l-4.1-1.6l-2.8,2.3l6.1,2.5
		l-0.8,0.7l-2.1-0.8l-1.8,1.5l-0.9-0.4l1.8-1.5l-5.3-2.1l-2.8,2.3l2,0.8l-0.8,0.7l-2-0.8l-2.8,2.3l3.2,1.3L304.5,255.8z
		 M311.6,268.5l-0.9-0.4l4.5-3.6l0.9,0.4L311.6,268.5z M342.9,267.9l-0.9-0.4l2.6-2.1l0.9,0.4L342.9,267.9z M351.2,252.6l2,0.8
		l3.6-2.9l2.9,1.2l-1.8,1.5l2,0.8l-0.8,0.7l-4.1-1.6l-1.8,1.5l-2.9-1.2L351.2,252.6z M351.7,257.2l1.8-1.5l0.9,0.4l-2.6,2.1l-2-0.8
		l-1.8,1.5l-0.9-0.4l1.8-1.5l-2-0.8l0.8-0.7L351.7,257.2z M345.3,252.4l2.9,1.2l-0.8,0.7l-2.9-1.2L345.3,252.4z M339.9,256.8
		L339.9,256.8l1.8-1.5l2.9,1.2l-1.8,1.5l2,0.8l-0.8,0.7l-5-2L339.9,256.8z M332.7,263.8l-0.9-0.4l0.8-0.7l0.9,0.4L332.7,263.8z
		 M333.8,254.4l2.9,1.2l-2.6,2.1l-0.9-0.4l1.8-1.5l-2-0.8L333.8,254.4z M332.4,260.4l0.9,0.4l-0.8,0.7l-0.9-0.4L332.4,260.4z
		 M323.9,262.4l0.8-0.7l2.9,1.2l-2.7,2.2l-0.9-0.4l1.8-1.5L323.9,262.4z M327.3,268.2l-2.9-1.2l0.8-0.7l2.9,1.2L327.3,268.2z
		 M327.6,251.9l0.9,0.4l-0.8,0.7l-0.9-0.4L327.6,251.9z M326.1,255.7l2.9,1.2l-1.8,1.5l2,0.8l-0.8,0.7l-4.1-1.6l-1.8,1.5l-2.9-1.2
		l0.8-0.7l2,0.8L326.1,255.7z M319.5,248.6l2.9,1.2l-1.8,1.5l4.1,1.7l-2.6,2.1l-2.9-1.2l1.8-1.5l-2-0.8l1.8-1.5l-2.1-0.8
		L319.5,248.6z"/>
	<polygon class="st0" points="328.1,237.7 323.5,241.4 328.8,243.5 333.4,239.8 	"/>
	<polygon class="st0" points="371,254 373.8,251.7 366.5,248.8 363.7,251 	"/>
	<path class="st0" d="M319.5,279.4l13.4,5.4l11.8-9.6l-13.4-5.4L319.5,279.4z M339,276.2l-6.4,5.2l-7.2-2.9l6.4-5.2L339,276.2z"/>
	<polygon class="st0" points="332.5,359.2 341.3,362.9 389.3,341.9 379.9,338.6 	"/>
	<path class="st0" d="M341.1,238.5l-13.4-5.4l-11.8,9.6l13.4,5.4L341.1,238.5z M321.6,241.8l6.4-5.2l7.2,2.9l-6.4,5.2L321.6,241.8z"
		/>
	<path class="st0" d="M366.7,190c2-10.2-5.2-20.1-15.3-21.9l-25.8-4.8l-6.5,37.4l25.7,4.6C355.2,207,365,200.2,366.7,190z"/>
	<path class="st0" d="M495.2,358.4L417,93.5c-26.6-89.3-138-123.9-199.2-62.7L30.5,216.7c-61.2,62-26.6,172.6,62.7,199.2l265.6,78.9
		C445.8,520.7,521,445.4,495.2,358.4z M260.2,171.4c2.8-15.1,17.2-25.4,32.4-22.7l25.7,4.6l8.8,1.5l25.7,4.6
		c15.1,2.8,25.4,17.2,22.7,32.4c-2.8,15.1-17.2,25.4-32.4,22.7l-25.7-4.6l-8.8-1.5l-25.7-4.6C267.7,201.1,257.5,186.7,260.2,171.4z
		 M426.3,351.9l-98,44.3c-1.9,0.8-3.9,1.2-5.9,1.1c-1.5-0.1-3-0.4-4.3-1l-202.9-85.3c-5.3-2.2-8.4-7.5-7.8-13.2
		c0.6-5.2,4.6-9.5,9.6-11.1l61.5-19.7c-44.2-24.6-84.3-47.5-84.3-47.5c0,0,0,0,0,0c0.8-0.2,68.7-19.3,128.7-78.5c0,0,0,0,0,0
		c6.9,9.3,14.2,17.8,21.9,25.6c-0.3,1.1-0.6,2.2-0.8,3.4c-3.7,21,10.4,41.2,31.5,45l60.3,10.7c0.1,0,0.2,0,0.3,0
		c26.8,10.5,51.3,15.5,68.3,17.4c0,0-28.9,30.9-60.9,55.4l81.6,29.4c4,1.4,7.3,4.5,8.5,8.6C435.1,343,432,349.4,426.3,351.9z"/>
	<path class="st0" d="M231.9,185.8c2-2.1,1.9-5.3-0.2-7.3c-2.1-2-5.3-1.9-7.3,0.2c-19.9,20.7-65.1,42.4-65.5,42.7
		c-2.6,1.2-3.7,4.3-2.4,6.9c1,2,3.1,3.2,5.2,2.9c0.6-0.1,1.1-0.2,1.6-0.5C165.3,229.7,210.7,207.9,231.9,185.8z"/>
	<path class="st0" d="M229.2,209.3c-26.5,22.6-44,29-44.2,29.1c-2.7,0.9-4.1,3.9-3.2,6.6c0.8,2.3,3.1,3.7,5.5,3.4
		c0.4,0,0.8-0.1,1.1-0.3c0.8-0.3,19.3-6.9,47.5-31c2.2-1.8,2.4-5.1,0.6-7.3C234.7,207.7,231.4,207.4,229.2,209.3z"/>
	<path class="st0" d="M330.5,307.9c-13.3,9.1-26.6,16.3-38.1,19.1c-7.9-1.7-53.1-26-98.4-51.1l-64.6,20.7c-3,1-3.2,5.2-0.3,6.4
		l158.1,66.4l98.2-41.7L330.5,307.9z M151.2,303.2c-4.4-0.2-7.9-1.7-7.8-3.4c0.1-1.6,3.7-2.8,8.1-2.6c4.4,0.2,7.9,1.7,7.8,3.4
		C159.2,302.3,155.6,303.4,151.2,303.2z"/>
	<path class="st0" d="M211.2,262.3c0.9,2.2,3.1,3.5,5.4,3.2c0.5-0.1,0.9-0.2,1.4-0.3c0.9-0.4,9.5-4.1,36.5-24
		c2.3-1.7,2.8-4.9,1.1-7.2c-1.7-2.3-4.9-2.8-7.2-1.1c-25.6,18.9-34.1,22.7-34.3,22.8C211.4,256.7,210.2,259.7,211.2,262.3z"/>
</g>
</svg>
