<?xml version="1.0" encoding="UTF-8"?>
<svg id="Calque_1" xmlns="http://www.w3.org/2000/svg" version="1.1" viewBox="0 0 871 871">
  <!-- Generator: Adobe Illustrator 29.6.1, SVG Export Plug-In . SVG Version: 2.1.1 Build 9)  -->
  <defs>
    <style>
      .st0 {
        fill: none;
      }

      .st1 {
        fill: #224e71;
      }

      .st2 {
        fill: #4482c3;
      }

      .st3 {
        fill: #fff;
      }

      .st4 {
        opacity: .8;
      }

      .st5 {
        opacity: .5;
      }

      .st6 {
        opacity: .2;
      }
    </style>
  </defs>
  <g class="st6">
    <path class="st3" d="M759.1,697.9l-261.8,154.8c-40.4,23.9-90.4,24.4-131.3,1.4l-265-149.3c-40.9-23-66.4-66.1-66.8-113l-3.2-304.2c-.5-46.9,24.1-90.5,64.5-114.5L357.2,18.3c40.4-23.9,90.4-24.4,131.3-1.4l265,149.3c40.9,23,66.4,66.1,66.8,113l3.2,304.2c.5,46.9-24.1,90.5-64.5,114.5Z"/>
  </g>
  <g class="st5">
    <path class="st3" d="M708.9,658.2l-222.2,131.5c-34.3,20.3-76.8,20.7-111.4,1.2l-225-126.8c-34.7-19.6-56.3-56.1-56.7-96l-2.7-258.2c-.4-39.9,20.4-76.8,54.7-97.1l222.2-131.5c34.3-20.3,76.8-20.7,111.4-1.2l225,126.8c34.7,19.6,56.3,56.1,56.7,96l2.7,258.2c.4,39.9-20.4,76.8-54.7,97.1h0Z"/>
  </g>
  <g class="st4">
    <path class="st3" d="M661.1,620.3l-184.4,109.1c-28.5,16.9-63.7,17.2-92.6,1l-186.7-105.2c-28.8-16.2-46.7-46.5-47.1-79.6l-2.2-214.3c-.3-33,17-63.8,45.4-80.6l184.4-109.1c28.5-16.9,63.7-17.2,92.6-1l186.7,105.2c28.8,16.2,46.7,46.5,47.1,79.6l2.2,214.3c.3,33-17,63.8-45.4,80.6Z"/>
  </g>
  <g>
    <path class="st2" d="M619.7,587.4l-151.8,89.8c-23.4,13.8-52.4,14.2-76.1.8l-153.7-86.6c-23.7-13.4-38.5-38.3-38.8-65.5l-1.9-176.4c-.3-27.2,14-52.5,37.4-66.3l151.8-89.8c23.4-13.8,52.4-14.2,76.1-.8l153.7,86.6c23.7,13.4,38.5,38.3,38.8,65.5l1.9,176.4c.3,27.2-14,52.5-37.4,66.3Z"/>
    <path class="st0" d="M427.3,509.4"/>
    <g>
      <path class="st3" d="M478.7,464.6l-18.8-63.8c-6.4-21.5-33.2-29.9-48-15.1l-45.1,44.8c-14.7,14.9-6.4,41.6,15.1,48l64,19c21,6.2,39.1-11.9,32.9-32.9Z"/>
      <circle class="st1" cx="285.3" cy="438.5" r="27.1"/>
      <circle class="st1" cx="431.4" cy="585.3" r="27.1"/>
      <circle class="st1" cx="569.2" cy="432.3" r="27.1"/>
      <circle class="st1" cx="420.9" cy="283.2" r="27.1"/>
      <g>
        <path class="st3" d="M320.4,473.8c-3.5-3.5-9.1-3.5-12.6,0-3.5,3.5-3.5,9.1,0,12.6l25.2,25.2c1.7,1.7,4,2.6,6.3,2.6s4.6-.9,6.3-2.6c3.5-3.5,3.5-9.1,0-12.6l-25.2-25.2Z"/>
        <path class="st3" d="M526.9,400.1c1.7,1.7,4,2.6,6.3,2.6s4.6-.9,6.3-2.6c3.5-3.5,3.5-9.1,0-12.6l-25.2-25.2c-3.5-3.5-9.1-3.5-12.6,0-3.5,3.5-3.5,9.1,0,12.6l25.2,25.2Z"/>
        <path class="st3" d="M478.1,350.7c1.7,1.7,4,2.6,6.3,2.6s4.6-.9,6.3-2.6c3.5-3.5,3.5-9.1,0-12.6l-25.2-25.2c-3.5-3.5-9.1-3.5-12.6,0-3.5,3.5-3.5,9.1,0,12.6l25.2,25.2Z"/>
        <path class="st3" d="M490.3,522.2l-25.2,25.2c-3.5,3.5-3.5,9.1,0,12.6,1.7,1.7,4,2.6,6.3,2.6s4.6-.9,6.3-2.6l25.2-25.2c3.5-3.5,3.5-9.1,0-12.6-3.5-3.5-9.1-3.5-12.6,0Z"/>
        <path class="st3" d="M332.9,364.8l-25.2,25.2c-3.5,3.5-3.5,9.1,0,12.6,1.7,1.7,4,2.6,6.3,2.6s4.6-.9,6.3-2.6l25.2-25.2c3.5-3.5,3.5-9.1,0-12.6-3.5-3.5-9.1-3.5-12.6,0Z"/>
        <path class="st3" d="M380.2,316.7l-25.2,25.2c-3.5,3.5-3.5,9.1,0,12.6,1.7,1.7,4,2.6,6.3,2.6s4.6-.9,6.3-2.6l25.2-25.2c3.5-3.5,3.5-9.1,0-12.6-3.5-3.5-9.1-3.5-12.6,0Z"/>
        <path class="st3" d="M538.2,472.2c-.5.6-1,1.1-1.6,1.7l-23.2,23.2c-3.5,3.5-3.5,9.1,0,12.6,1.7,1.7,4,2.6,6.3,2.6s4.6-.9,6.3-2.6l23.2-23.2c.8-.8,1.5-1.6,2.2-2.4,3.3-3.7,3-9.3-.7-12.6-3.7-3.3-9.3-3-12.6.7Z"/>
        <path class="st3" d="M371.9,522.2c-3.5-3.5-9.1-3.5-12.6,0-3.5,3.5-3.5,9.1,0,12.6l25.2,25.2c1.7,1.7,4,2.6,6.3,2.6s4.6-.9,6.3-2.6c3.5-3.5,3.5-9.1,0-12.6l-25.2-25.2Z"/>
      </g>
    </g>
  </g>
</svg>