<?xml version="1.0" encoding="utf-8"?>
<!-- Generator: $$$/GeneralStr/196=Adobe Illustrator 27.6.0, SVG Export Plug-In . SVG Version: 6.00 Build 0)  -->
<svg version="1.1" id="Composant_17_2" xmlns="http://www.w3.org/2000/svg" xmlns:xlink="http://www.w3.org/1999/xlink" x="0px"
	 y="0px" viewBox="0 0 565 526.1" style="enable-background:new 0 0 565 526.1;" xml:space="preserve">
<style type="text/css">
	.st0{fill:#FFFFFF;}
</style>
<g>
	<path class="st0" d="M130.7,466l-31.4-9.3c-11-3.2-17.3-14.8-14-25.8c0.2-0.6,0.4-1.2,0.6-1.8c-3.6-4.6-7-9.5-10.1-14.9
		c0,0,0,0,0,0c-35.4,27.9-72.6,34-73,34c0,0,0,0,0,0c0,0,90.3,65.9,98.9,68.8c23.5-2.8,64.4-37.8,64.4-37.8
		c-8.9-2-21.7-6.2-35.2-13.3C130.8,466,130.7,466,130.7,466z M38,458.4c-1.1,0-2.2-0.7-2.6-1.9c-0.5-1.4,0.3-3,1.7-3.5
		c0.3-0.1,25.6-8.9,37.3-18.7c1.2-1,2.9-0.8,3.9,0.4c1,1.2,0.8,2.9-0.4,3.9c-12.6,10.5-38,19.4-39.1,19.7
		C38.6,458.4,38.3,458.4,38,458.4z M50.5,469.1c-1.3,0-2.4-0.9-2.7-2.1c-0.3-1.5,0.6-3,2.1-3.3c0.1,0,9.8-2.4,25.2-12.8
		c1.3-0.9,3-0.5,3.8,0.7c0.9,1.3,0.5,3-0.7,3.8c-16.4,11.1-26.6,13.5-27.1,13.6C51,469.1,50.7,469.1,50.5,469.1z M86.6,469.3
		c-15.5,9-20.3,10.4-20.8,10.6c-0.2,0.1-0.5,0.1-0.7,0.1c-1.2,0-2.3-0.8-2.7-2c-0.4-1.5,0.4-3,1.9-3.4c0.1,0,4.9-1.6,19.6-10.1
		c1.3-0.8,3-0.3,3.8,1C88.4,466.9,88,468.5,86.6,469.3z M132.8,477.9c1-0.3,2.1-0.2,2.9,0.2c1.4,0.8,0.9,2.4-0.9,3.1
		c-0.6,0.2-1.2,0.4-1.7,0.5c-0.9,0.2-2.1,0.5-3.2,0.7c-0.3,0.1-0.6,0.1-0.9,0.1c0,0-0.1,0-0.1,0c-0.1,0.1-0.1,0.1-0.1,0.2
		c0,0.6,0.1,1.2,0.2,1.8c0.1,0.7,0.2,1.4,0.2,2.2c0,0.4,0,0.8,0,1.2c0,0.5,0.1,1,0.1,1.5c0,1.4-0.9,2.4-2.7,2.9
		c-3.3,0.9-5.4-0.8-6.5-1.6l-0.6-0.5c0,0-0.1,0-0.1-0.1c0,0.1,0,0.2,0,0.3c0,0.2,0.1,0.3,0.1,0.5l0.4,3.4l0.2,1.7l-2.7,0.3
		c-1.5,0.2-2.8-0.5-2.9-1.5l-0.4-3.3c0-0.1,0-0.2-0.1-0.3c-0.2-1.1-0.6-3.4,2.1-4.5c1.3-0.5,3.6-0.5,3.6-0.5c2.1,0,3.3,0.9,4,1.5
		l0,0c0-0.2,0-0.4,0-0.6c0-0.6-0.1-1.2-0.2-1.8c-0.1-0.7-0.2-1.5-0.2-2.3c0-1.1,0.7-2.1,1.9-3c1.3-0.9,2.6-1.1,3.4-1.1
		c0.1,0,0.3,0,0.4-0.1c0.7-0.1,1.6-0.3,2.6-0.6C132.1,478.1,132.5,478,132.8,477.9z"/>
	<path class="st0" d="M117.4,455.2l4.6,1.3l13.4,4c7.9,2.4,16.2-2.3,18.6-10.1c2.4-7.9-2.3-16.2-10.1-18.6l-13.4-4l-4.6-1.3l-13.4-4
		c-7.9-2.4-16.2,2.3-18.6,10.1c-2.4,7.9,2.2,16.2,10.1,18.6L117.4,455.2z M129,432.3l13.4,4.1c5.3,1.5,8.5,7.2,6.8,12.5
		c-1.5,5.3-7.1,8.3-12.5,6.8l-13.4-4L129,432.3z"/>
	<path class="st0" d="M475.4,354.2l-59-17.4c-20.7-6.1-32.5-27.9-26.4-48.5c0.3-1.1,0.8-2.2,1.2-3.3c-6.8-8.6-13.1-17.9-19-28
		c0,0,0,0,0,0c-66.6,52.5-136.7,63.9-137.4,64c0,0,0,0,0,0c0,0,170,124.1,186.1,129.5c44.2-5.4,121.1-71.1,121.1-71.1
		c-16.8-3.8-40.7-11.6-66.3-25C475.6,354.2,475.5,354.2,475.4,354.2z M301,339.9c-2.2,0-4.2-1.4-4.9-3.5c-0.9-2.7,0.5-5.7,3.2-6.6
		c0.5-0.2,48.1-16.8,70.3-35.3c2.2-1.8,5.5-1.5,7.3,0.7c1.8,2.2,1.5,5.5-0.7,7.3c-23.6,19.7-71.5,36.4-73.5,37.1
		C302.2,339.8,301.6,339.9,301,339.9z M324.7,360.1c-2.4,0-4.5-1.6-5.1-4c-0.6-2.8,1.1-5.6,3.9-6.2c0.2,0,18.4-4.5,47.4-24.1
		c2.4-1.6,5.6-1,7.2,1.4c1.6,2.4,1,5.6-1.4,7.2c-30.8,20.9-50.1,25.4-50.9,25.6C325.4,360,325.1,360.1,324.7,360.1z M392.6,360.4
		c-29.2,16.9-38.3,19.6-39.2,19.9c-0.5,0.1-0.9,0.2-1.4,0.2c-2.3,0-4.4-1.5-5-3.8c-0.8-2.7,0.8-5.6,3.6-6.4
		c0.3-0.1,9.1-2.9,36.8-18.9c2.5-1.4,5.7-0.6,7.1,1.9C395.9,355.8,395.1,358.9,392.6,360.4z M479.5,376.5c1.9-0.7,4-0.4,5.4,0.4
		c2.6,1.6,1.6,4.6-1.7,5.7c-1.2,0.4-2.3,0.7-3.3,1c-1.6,0.4-4,1-6.1,1.3c-0.6,0.1-1.2,0.2-1.7,0.2c-0.1,0-0.1,0-0.2,0
		c-0.2,0.2-0.2,0.2-0.2,0.4c0,1.1,0.1,2.2,0.3,3.5c0.2,1.3,0.4,2.7,0.4,4.1c0,0.8,0,1.5,0.1,2.3c0.1,0.9,0.1,1.8,0.1,2.7
		c-0.1,2.7-1.7,4.5-5,5.4c-6.2,1.7-10.2-1.5-12.2-3.1l-1.1-0.9c0,0-0.1-0.1-0.2-0.1c0,0.2,0.1,0.4,0.1,0.5c0.1,0.3,0.1,0.7,0.1,0.9
		l0.8,6.4l0.4,3.2l-5.1,0.6c-2.8,0.3-5.2-0.9-5.5-2.8l-0.7-6.3c0-0.2-0.1-0.4-0.1-0.6c-0.4-2.1-1.2-6.4,3.9-8.4c2.5-1,6.7-1,6.8-1
		c4,0,6.1,1.8,7.4,2.8l0.1,0c0-0.4,0-0.7,0-1.1c0-1.1-0.1-2.2-0.3-3.3c-0.2-1.4-0.4-2.8-0.4-4.3c0.1-2,1.2-3.9,3.5-5.6
		c2.4-1.7,4.8-2,6.3-2.2c0.3,0,0.5-0.1,0.8-0.1c1.2-0.2,3-0.6,5-1.1C478.1,377,478.8,376.7,479.5,376.5z"/>
	<path class="st0" d="M474.9,282.3l-8.6-2.5l-25.2-7.5c-15-4.4-30.5,4.3-35,19.1c-4.4,15,4.1,30.5,19.1,35l25.2,7.5l8.6,2.5
		l25.2,7.5c15,4.4,30.5-4.3,35-19.1c4.4-15-4.3-30.5-19.1-35L474.9,282.3z M510.5,321.9c-2.9,10-13.4,15.7-23.6,12.9l-25.2-7.5
		l10.7-36.7l25.3,7.7C507.6,301.2,513.6,311.9,510.5,321.9z"/>
	<path class="st0" d="M159.9,335.7l-24.4-7.2c-8.6-2.5-13.5-11.5-10.9-20.1c0.1-0.5,0.3-0.9,0.5-1.4c-2.8-3.6-5.4-7.4-7.9-11.6
		c0,0,0,0,0,0c-27.6,21.7-56.6,26.5-56.9,26.5c0,0,0,0,0,0c0,0,70.4,51.4,77.1,53.6c18.3-2.2,50.2-29.5,50.2-29.5
		c-7-1.6-16.9-4.8-27.5-10.4C160,335.8,160,335.8,159.9,335.7z M87.7,329.8c-0.9,0-1.7-0.6-2-1.4c-0.4-1.1,0.2-2.3,1.3-2.7
		c0.2-0.1,19.9-7,29.1-14.6c0.9-0.8,2.3-0.6,3,0.3c0.8,0.9,0.6,2.3-0.3,3c-9.8,8.2-29.6,15.1-30.4,15.4
		C88.2,329.8,87.9,329.8,87.7,329.8z M97.5,338.2c-1,0-1.9-0.7-2.1-1.7c-0.3-1.2,0.5-2.3,1.6-2.6c0.1,0,7.6-1.8,19.6-10
		c1-0.7,2.3-0.4,3,0.6c0.7,1,0.4,2.3-0.6,3c-12.8,8.6-20.8,10.5-21.1,10.6C97.8,338.2,97.7,338.2,97.5,338.2z M125.6,338.3
		c-12.1,7-15.8,8.1-16.2,8.2c-0.2,0.1-0.4,0.1-0.6,0.1c-0.9,0-1.8-0.6-2.1-1.6c-0.3-1.1,0.3-2.3,1.5-2.6c0.1,0,3.8-1.2,15.3-7.8
		c1-0.6,2.3-0.2,2.9,0.8C127,336.4,126.7,337.7,125.6,338.3z M161.6,345c0.8-0.3,1.7-0.2,2.2,0.2c1.1,0.7,0.7,1.9-0.7,2.4
		c-0.5,0.2-1,0.3-1.4,0.4c-0.7,0.2-1.7,0.4-2.5,0.5c-0.3,0-0.5,0.1-0.7,0.1c0,0,0,0-0.1,0c-0.1,0.1-0.1,0.1-0.1,0.1
		c0,0.5,0.1,0.9,0.1,1.4c0.1,0.5,0.2,1.1,0.2,1.7c0,0.3,0,0.6,0,0.9c0,0.4,0,0.8,0,1.1c0,1.1-0.7,1.9-2.1,2.2
		c-2.6,0.7-4.2-0.6-5-1.3l-0.5-0.4c0,0,0,0-0.1-0.1c0,0.1,0,0.1,0,0.2c0,0.1,0,0.3,0.1,0.4l0.3,2.7l0.2,1.3l-2.1,0.2
		c-1.2,0.1-2.2-0.4-2.3-1.2l-0.3-2.6c0-0.1,0-0.2,0-0.2c-0.2-0.9-0.5-2.7,1.6-3.5c1-0.4,2.8-0.4,2.8-0.4c1.6,0,2.5,0.7,3.1,1.2l0,0
		c0-0.2,0-0.3,0-0.5c0-0.4-0.1-0.9-0.1-1.4c-0.1-0.6-0.2-1.2-0.2-1.8c0-0.8,0.5-1.6,1.4-2.3c1-0.7,2-0.8,2.6-0.9c0.1,0,0.2,0,0.3,0
		c0.5-0.1,1.2-0.2,2.1-0.5C161,345.2,161.3,345.1,161.6,345z"/>
	<path class="st0" d="M159.7,306l-3.6-1l-10.4-3.1c-6.2-1.8-12.6,1.8-14.5,7.9c-1.8,6.2,1.7,12.6,7.9,14.5l10.4,3.1l3.6,1l10.4,3.1
		c6.2,1.8,12.6-1.8,14.5-7.9c1.8-6.2-1.8-12.6-7.9-14.5L159.7,306z M174.5,322.4c-1.2,4.1-5.6,6.5-9.8,5.3l-10.4-3.1l4.4-15.2
		l10.5,3.2C173.3,313.8,175.8,318.2,174.5,322.4z"/>
	<path class="st0" d="M245.7,251.8c31.9-3.9,87.3-51.3,87.3-51.3c-12.1-2.8-29.4-8.4-47.8-18.1c-0.1,0-0.1,0-0.2,0l-42.6-12.6
		c-14.9-4.4-23.4-20.1-19-34.9c0.2-0.8,0.5-1.6,0.9-2.4c-4.9-6.2-9.5-12.9-13.7-20.2c0,0,0,0,0,0c-48,37.8-98.5,46.1-99.1,46.1
		c0,0,0,0,0,0C111.5,158.5,234,247.9,245.7,251.8z M265.3,210.4c1.8-0.7,4.8-0.7,4.9-0.7c2.9,0,4.4,1.3,5.4,2l0,0c0-0.3,0-0.5,0-0.8
		c0-0.8-0.1-1.6-0.2-2.4c-0.1-1-0.3-2-0.3-3.1c0-1.5,0.9-2.8,2.5-4c1.7-1.2,3.5-1.4,4.6-1.6c0.2,0,0.4,0,0.6-0.1
		c0.9-0.2,2.2-0.4,3.6-0.8c0.6-0.2,1.2-0.3,1.6-0.5c1.3-0.5,2.9-0.3,3.9,0.3c1.8,1.1,1.2,3.3-1.2,4.1c-0.9,0.3-1.7,0.5-2.4,0.7
		c-1.2,0.3-2.9,0.7-4.4,1c-0.4,0.1-0.9,0.1-1.3,0.2c0,0-0.1,0-0.1,0c-0.1,0.1-0.1,0.2-0.1,0.3c0,0.8,0.1,1.6,0.2,2.5
		c0.1,0.9,0.3,1.9,0.3,3c0,0.5,0,1.1,0.1,1.6c0,0.7,0.1,1.3,0.1,2c0,1.9-1.3,3.3-3.6,3.9c-4.5,1.2-7.4-1.1-8.8-2.2l-0.8-0.6
		c0,0-0.1-0.1-0.1-0.1c0,0.1,0,0.3,0.1,0.4c0,0.2,0.1,0.5,0.1,0.6l0.5,4.6l0.3,2.3l-3.6,0.4c-2,0.2-3.8-0.7-3.9-2l-0.5-4.5
		c0-0.1,0-0.3-0.1-0.4C262.2,215,261.6,211.8,265.3,210.4z M226.6,181.8c1,1.8,0.4,4.1-1.4,5.1c-21.1,12.2-27.6,14.2-28.3,14.4
		c-0.3,0.1-0.7,0.1-1,0.1c-1.6,0-3.1-1.1-3.6-2.7c-0.6-2,0.6-4,2.6-4.6c0.2-0.1,6.6-2.1,26.6-13.6
		C223.3,179.4,225.6,180,226.6,181.8z M213.9,168.1c-22.2,15-36.1,18.3-36.7,18.4c-0.3,0.1-0.6,0.1-0.8,0.1c-1.7,0-3.3-1.2-3.6-2.9
		c-0.5-2,0.8-4,2.8-4.5c0.1,0,13.3-3.2,34.2-17.4c1.7-1.2,4-0.7,5.2,1C216,164.6,215.6,167,213.9,168.1z M158,164.9
		c0.3-0.1,34.7-12.1,50.7-25.4c1.6-1.3,4-1.1,5.3,0.5c1.3,1.6,1.1,3.9-0.5,5.3c-17,14.2-51.5,26.2-53,26.7c-0.4,0.1-0.8,0.2-1.2,0.2
		c-1.6,0-3-1-3.5-2.5C155,167.7,156.1,165.5,158,164.9z"/>
	<path class="st0" d="M248.8,162.3l18.2,5.4l6.2,1.8l18.2,5.4c10.8,3.2,22-3.1,25.2-13.7c3.2-10.8-3.1-22-13.7-25.2l-18.2-5.4
		l-6.2-1.8l-18.2-5.4c-10.8-3.2-22,3.1-25.2,13.7C231.8,147.9,238,159.1,248.8,162.3z M282.8,136.6l18.2,5.5
		c7.2,2.1,11.5,9.8,9.3,17c-2.1,7.2-9.7,11.3-17,9.3l-18.2-5.4L282.8,136.6z"/>
	<path class="st0" d="M482,174.6c28.7-3.5,78.6-46.2,78.6-46.2c-10.9-2.5-26.4-7.5-43-16.3c-0.1,0-0.1,0-0.2,0L479,100.8
		c-13.4-4-21.1-18.1-17.1-31.5c0.2-0.7,0.5-1.5,0.8-2.2c-4.4-5.6-8.5-11.6-12.3-18.2c0,0,0,0,0,0c-43.2,34-88.7,41.5-89.2,41.5
		c0,0,0,0,0,0C361.2,90.6,471.5,171,482,174.6z M499.6,137.3c1.6-0.6,4.4-0.6,4.4-0.6c2.6,0,4,1.1,4.8,1.8l0,0c0-0.2,0-0.5,0-0.7
		c0-0.7-0.1-1.4-0.2-2.2c-0.1-0.9-0.3-1.8-0.2-2.8c0-1.3,0.8-2.5,2.3-3.6c1.5-1.1,3.1-1.3,4.1-1.4c0.2,0,0.3,0,0.5-0.1
		c0.8-0.1,1.9-0.4,3.2-0.7c0.6-0.1,1.1-0.3,1.5-0.4c1.2-0.4,2.6-0.3,3.5,0.3c1.7,1,1.1,3-1.1,3.7c-0.8,0.3-1.5,0.5-2.1,0.6
		c-1.1,0.3-2.6,0.6-3.9,0.9c-0.4,0.1-0.8,0.1-1.1,0.2c0,0-0.1,0-0.1,0c-0.1,0.1-0.1,0.2-0.1,0.2c0,0.7,0.1,1.5,0.2,2.2
		c0.1,0.8,0.3,1.7,0.2,2.7c0,0.5,0,1,0.1,1.5c0,0.6,0.1,1.2,0.1,1.8c0,1.7-1.1,2.9-3.3,3.5c-4,1.1-6.6-1-7.9-2l-0.7-0.6
		c0,0-0.1-0.1-0.1-0.1c0,0.1,0,0.2,0.1,0.3c0,0.2,0.1,0.4,0.1,0.6l0.5,4.2l0.2,2.1l-3.3,0.4c-1.8,0.2-3.4-0.6-3.5-1.8l-0.5-4.1
		c0-0.1,0-0.2-0.1-0.4C496.8,141.4,496.3,138.6,499.6,137.3z M464.8,111.5c0.9,1.6,0.4,3.7-1.2,4.6c-19,10.9-24.8,12.7-25.4,12.9
		c-0.3,0.1-0.6,0.1-0.9,0.1c-1.5,0-2.8-1-3.2-2.5c-0.5-1.8,0.5-3.6,2.3-4.1c0.2-0.1,5.9-1.9,23.9-12.3
		C461.8,109.4,463.9,109.9,464.8,111.5z M453.3,99.2c-20,13.5-32.5,16.5-33,16.6c-0.3,0.1-0.5,0.1-0.8,0.1c-1.5,0-2.9-1.1-3.3-2.6
		c-0.4-1.8,0.7-3.6,2.5-4c0.1,0,11.9-2.9,30.8-15.6c1.5-1,3.6-0.6,4.7,0.9C455.3,96.1,454.9,98.2,453.3,99.2z M403.1,96.3
		c0.3-0.1,31.2-10.9,45.6-22.9c1.4-1.2,3.6-1,4.7,0.4c1.2,1.4,1,3.6-0.4,4.7c-15.3,12.8-46.4,23.6-47.7,24.1
		c-0.4,0.1-0.7,0.2-1.1,0.2c-1.4,0-2.7-0.9-3.2-2.3C400.4,98.8,401.3,96.9,403.1,96.3z"/>
	<path class="st0" d="M484.8,94l16.3,4.8l5.6,1.6l16.3,4.8c9.7,2.9,19.8-2.8,22.7-12.4c2.9-9.7-2.8-19.8-12.4-22.7L517,65.4
		l-5.6-1.6L495.1,59c-9.7-2.9-19.8,2.8-22.7,12.4C469.5,81,475.1,91.2,484.8,94z M515.4,70.9l16.4,5c6.5,1.9,10.4,8.8,8.4,15.3
		c-1.9,6.5-8.7,10.2-15.3,8.4l-16.3-4.8L515.4,70.9z"/>
</g>
</svg>
