<?xml version="1.0" encoding="utf-8"?>
<!-- Generator: $$$/GeneralStr/196=Adobe Illustrator 27.6.0, SVG Export Plug-In . SVG Version: 6.00 Build 0)  -->
<svg version="1.1" id="Composant_17_2" xmlns="http://www.w3.org/2000/svg" xmlns:xlink="http://www.w3.org/1999/xlink" x="0px"
	 y="0px" viewBox="0 0 565 526.1" style="enable-background:new 0 0 565 526.1;" xml:space="preserve">
<style type="text/css">
	.st0{fill:#FFFFFF;}
</style>
<g>
	<g>
		<path class="st0" d="M108.3,283.8l11.8,2.1l4.1,0.7l11.8,2.1c7,1.2,13.6-3.5,14.9-10.5c1.2-7-3.5-13.6-10.5-14.9l-11.8-2.1
			l-4.1-0.7l-11.8-2.1c-7-1.2-13.6,3.5-14.9,10.5C96.6,275.9,101.3,282.6,108.3,283.8z M128,265.2l11.9,2.2c4.7,0.8,8,5.4,7.1,10.1
			c-0.8,4.7-5.3,7.8-10.1,7.1l-11.8-2.1L128,265.2z"/>
		<path class="st0" d="M47.8,326.8c-2-0.1-3.7,0.4-3.7,1.2c0,0.8,1.6,1.5,3.6,1.6c2,0.1,3.7-0.4,3.7-1.2
			C51.4,327.6,49.8,326.9,47.8,326.8z"/>
		<g>
			<polygon class="st0" points="138.4,306.7 137.1,306.2 136.7,306.5 138,307.1 			"/>
			<polygon class="st0" points="141.6,306.5 143.4,307.2 143.8,306.9 142.9,306.5 143.7,305.8 142.4,305.3 140.7,306.7 139.8,306.3 
				139.4,306.6 140.7,307.1 			"/>
			<polygon class="st0" points="137.7,307.9 138.7,308.3 137.8,309 138.2,309.2 139.1,308.5 140,308.9 141.2,307.9 140.8,307.7 
				140,308.4 138.1,307.6 			"/>
			<polygon class="st0" points="136.8,309.2 135.9,308.8 136.7,308.1 135.4,307.6 134.6,308.2 134.6,308.2 134.2,308.5 136.5,309.5 
							"/>
			<polygon class="st0" points="130.8,311.2 131.2,311.4 131.6,311.1 131.2,310.9 			"/>
			<polygon class="st0" points="131.5,308.5 131.9,308.6 133.1,307.6 131.7,307.1 131.3,307.4 132.3,307.8 			"/>
			<path class="st0" d="M131.2,319.5l2.9-2.4l-3.3-1.3l-2.9,2.4L131.2,319.5z M130.8,316.3l2.4,1l-2.1,1.7l-2.4-1L130.8,316.3z"/>
			<polygon class="st0" points="135.5,313.1 135.9,313.3 137.2,312.3 136.8,312.2 			"/>
			<path class="st0" d="M129.1,298.9l-2.9,2.4l3.3,1.3l2.9-2.4L129.1,298.9z M129.4,302.1l-2.4-1l2.1-1.7l2.4,1L129.4,302.1z"/>
			<polygon class="st0" points="121.1,313.4 121.5,313.6 123.6,311.9 123.2,311.7 			"/>
			<path class="st0" d="M177.6,345c-0.5-1.9-2.1-3.3-3.9-4l-37.5-13.5c14.8-11.3,28.1-25.5,28.1-25.5c-7.8-0.9-19.1-3.2-31.5-8
				c0,0-0.1,0-0.1,0l-27.8-4.9c-9.7-1.7-16.2-11-14.5-20.7c0.1-0.5,0.2-1.1,0.4-1.6c-3.5-3.6-6.9-7.5-10.1-11.8c0,0,0,0,0,0
				C53,282.2,21.7,291,21.4,291.1c0,0,0,0,0,0c0,0,18.5,10.5,38.8,21.9L31.9,322c-2.3,0.7-4.2,2.7-4.4,5.1c-0.3,2.7,1.2,5.1,3.6,6.1
				l93.4,39.3c0.6,0.3,1.3,0.4,2,0.5c0.9,0,1.9-0.1,2.7-0.5l45.1-20.4C176.9,350.8,178.4,347.9,177.6,345z M131.4,321.1l-6.2-2.5
				l5.5-4.4l6.2,2.5L131.4,321.1z M150.1,305.9l-1.3,1l-3.4-1.4l1.3-1L150.1,305.9z M128.9,297.3l6.2,2.5l-5.5,4.4l-6.2-2.5
				L128.9,297.3z M117.2,306.8l0.9,0.4l0.4-0.3l-0.9-0.4l1.3-1l2.4,1l-0.8,0.7l0.4,0.2l0.8-0.7l0.9,0.4l0.4-0.3l-2.8-1.1l1.3-1
				l1.9,0.8l0.4-0.3l-2.8-1.1l1.3-1l1.9,0.8l0.8-0.7l3.4,1.4l-0.8,0.7l0.4,0.2l0.8-0.7l0.9,0.4l1.7-1.4l2.4,1l-1.3,1l-0.9-0.4
				l-1.2,1l0.4,0.2l0.8-0.7l3.8,1.5l0.4-0.3l-0.9-0.4l0.8-0.7l-1.9-0.8l0.8-0.7l-2.8-1.1l1.3-1l0.9,0.4l1.2-1l-0.9-0.4l1.3-1
				l1.5,0.6l-0.8,0.7l0.9,0.4l-0.8,0.7l0.4,0.2l1.7-1.4l2.4,1l-3,2.4l-1.5-0.6l0.8-0.7l-0.4-0.2l-1.2,1l1.9,0.8l-0.8,0.7l0.4,0.2
				l0.8-0.7l0.9,0.4l0.8-0.7l0.9,0.4l0.4-0.3l-1.9-0.8l1.3-1l0.9,0.4l0.8-0.7l2.4,1l-0.8,0.7l1.9,0.8l-0.8,0.7l1.9,0.8l-0.8,0.7
				l0.4,0.2l0.8-0.7l1.5,0.6l-1.3,1l-0.9-0.4l-0.8,0.7l-1.9-0.8l-1.2,1l2.8,1.1l-1.3,1l-3.8-1.5l-1.2,1l1.3,0.5l0.8-0.7l1.5,0.6
				l-0.8,0.7l1,0.4l-1.3,1l-1.9-0.8l-2.5,2l-0.9-0.4l-0.4,0.3l2.8,1.1l-1.3,1l-6.2-2.5l1.3-1l1.9,0.8l0.4-0.3l-0.9-0.4l3.3-2.7
				l-0.4-0.2l-0.8,0.7l-0.9-0.4l-0.4,0.3l0.9,0.4l-1.3,1l-0.9-0.4l-1.7,1.4l-0.9-0.4l-0.4,0.3l0.9,0.4l-1.3,1l-0.9-0.4l-0.8,0.7
				l-3.8-1.5l-0.4,0.3l2.8,1.1L125,316l0.4,0.2l1.7-1.4l1.5,0.6l-3,2.4l-0.9-0.4l-0.8,0.7l-1.5-0.6l0.8-0.7l-0.9-0.4l0.8-0.7
				l-0.4-0.2L121,317l-1.5-0.6l0.8-0.7l-0.9-0.4l0.8-0.7l-0.4-0.2l-0.8,0.7l-1.5-0.6l1.3-1l0.9,0.4l0.4-0.3l-0.9-0.4l3-2.4l0.9,0.4
				l0.8-0.7l1.5,0.6l-0.8,0.7l1.3,0.5l0.4-0.3l-0.9-0.4l0.8-0.7l-2.8-1.1l0.8-0.7l-0.9-0.4l0.8-0.7l-1.3-0.5l-0.4,0.3l0.9,0.4
				l-0.8,0.7l0.9,0.4l-1.3,1l-1.5-0.6l0.8-0.7l-0.4-0.2l-0.8,0.7l-1.5-0.6l0.8-0.7l-1.4-0.5l-0.8,0.7l-1.5-0.6L117.2,306.8z
				 M115.6,308.1l6.2,2.5l-5.5,4.4l-6.2-2.5L115.6,308.1z M92.4,297.2c1.1-0.8,2.5-0.6,3.3,0.5c0.8,1.1,0.6,2.5-0.5,3.3
				c-12.4,9.2-16.4,10.9-16.8,11.1c-0.2,0.1-0.4,0.1-0.6,0.2c-1,0.1-2.1-0.5-2.5-1.5c-0.5-1.2,0.1-2.6,1.3-3.1
				C76.7,307.6,80.6,305.8,92.4,297.2z M86.7,289.9c-13,11.1-21.5,14.1-21.9,14.3c-0.2,0.1-0.3,0.1-0.5,0.1
				c-1.1,0.1-2.1-0.5-2.5-1.6c-0.4-1.2,0.2-2.6,1.5-3c0.1,0,8.2-3,20.4-13.4c1-0.9,2.5-0.7,3.4,0.3
				C87.8,287.6,87.7,289.1,86.7,289.9z M53.3,296.1c-0.2,0.1-0.5,0.2-0.8,0.2c-1,0.1-2-0.4-2.4-1.3c-0.6-1.2-0.1-2.6,1.1-3.2
				c0.2-0.1,21-10.1,30.2-19.6c0.9-1,2.4-1,3.4-0.1c0.9,0.9,1,2.4,0.1,3.4C75.1,285.7,54.1,295.7,53.3,296.1z M110.3,360l-72.8-30.6
				c-1.3-0.6-1.3-2.5,0.1-2.9l29.7-9.5c20.9,11.5,41.7,22.8,45.3,23.5c5.3-1.3,11.4-4.6,17.5-8.8l25.3,9.1L110.3,360z M135.2,357
				l-4.1-1.7l21.9-9.5l4.3,1.5L135.2,357z"/>
			<polygon class="st0" points="124.9,305.8 125.8,306.2 125,306.9 126.3,307.4 127.5,306.4 125.7,305.7 126.5,305 125.1,304.4 
				124.8,304.7 125.7,305.1 			"/>
			<path class="st0" d="M115.7,309.7l-2.9,2.4l3.3,1.3l2.9-2.4L115.7,309.7z M116.1,312.9l-2.4-1l2.1-1.7l2.4,1L116.1,312.9z"/>
			<polygon class="st0" points="125.6,308.7 125.2,309 126.5,309.5 127.4,308.8 129.3,309.6 129.6,309.3 128.7,308.9 129.5,308.2 
				128.2,307.7 126.5,309 			"/>
			<polygon class="st0" points="131.5,310 131.1,309.9 130.7,310.2 131.1,310.4 			"/>
			<polygon class="st0" points="127.7,312 128.9,311 127.6,310.5 127.2,310.8 128.1,311.2 127.3,311.8 			"/>
			<polygon class="st0" points="127.4,312.9 128.7,313.4 129.1,313.1 127.8,312.6 			"/>
			<polygon class="st0" points="129.3,306.1 128.9,306 128.5,306.3 128.9,306.4 			"/>
		</g>
	</g>
	<g>
		<path class="st0" d="M68.7,456.1l9.1,1.6l3.1,0.5l9.1,1.6c5.4,1,10.5-2.7,11.5-8.1c1-5.4-2.7-10.5-8.1-11.5l-9.1-1.6l-3.1-0.5
			l-9.1-1.6c-5.4-1-10.5,2.7-11.5,8.1C59.6,450,63.2,455.2,68.7,456.1z M83.8,441.8l9.2,1.7c3.6,0.6,6.1,4.1,5.5,7.8
			c-0.6,3.6-4.1,6-7.8,5.5l-9.1-1.6L83.8,441.8z"/>
		<path class="st0" d="M21.9,489.3c-1.6-0.1-2.8,0.3-2.9,0.9c0,0.6,1.2,1.1,2.8,1.2c1.6,0.1,2.8-0.3,2.9-0.9
			C24.7,490,23.5,489.4,21.9,489.3z"/>
		<g>
			<polygon class="st0" points="91.9,473.8 90.8,473.4 90.5,473.7 91.6,474.1 			"/>
			<polygon class="st0" points="94.3,473.6 95.8,474.2 96.1,474 95.3,473.7 96,473.2 94.9,472.7 93.7,473.8 92.9,473.5 92.6,473.7 
				93.7,474.1 			"/>
			<polygon class="st0" points="91.3,474.8 92.1,475.1 91.4,475.6 91.7,475.7 92.4,475.2 93.1,475.5 94.1,474.7 93.7,474.6 
				93.1,475.1 91.6,474.5 			"/>
			<polygon class="st0" points="90.7,475.7 89.9,475.4 90.6,474.9 89.5,474.5 88.9,475 88.9,475 88.6,475.2 90.4,475.9 			"/>
			<polygon class="st0" points="86,477.3 86.3,477.4 86.6,477.2 86.3,477.1 			"/>
			<polygon class="st0" points="86.5,475.2 86.8,475.3 87.8,474.5 86.7,474.1 86.4,474.4 87.2,474.6 			"/>
			<path class="st0" d="M86.3,483.7l2.3-1.8l-2.5-1l-2.3,1.8L86.3,483.7z M86,481.2l1.9,0.8l-1.6,1.3l-1.9-0.8L86,481.2z"/>
			<polygon class="st0" points="89.7,478.8 90,478.9 90.9,478.1 90.6,478 			"/>
			<path class="st0" d="M84.7,467.8l-2.3,1.8l2.5,1l2.3-1.8L84.7,467.8z M84.9,470.3l-1.9-0.8l1.6-1.3l1.9,0.8L84.9,470.3z"/>
			<polygon class="st0" points="78.5,479 78.9,479.1 80.4,477.8 80.1,477.7 			"/>
			<path class="st0" d="M122.1,503.3c-0.4-1.4-1.6-2.6-3-3.1l-29-10.4c11.4-8.7,21.7-19.7,21.7-19.7c-6.1-0.7-14.8-2.5-24.3-6.2
				c0,0-0.1,0-0.1,0L66,460.2c-7.5-1.3-12.5-8.5-11.2-16c0.1-0.4,0.2-0.8,0.3-1.2c-2.7-2.8-5.3-5.8-7.8-9.1c0,0,0,0,0,0
				c-21.3,21-45.5,27.8-45.7,27.9c0,0,0,0,0,0c0,0,14.2,8.1,30,16.9l-21.8,7c-1.8,0.6-3.2,2.1-3.4,3.9c-0.2,2,0.9,3.9,2.8,4.7
				l72.1,30.3c0.5,0.2,1,0.3,1.5,0.4c0.7,0,1.4-0.1,2.1-0.4l34.8-15.8C121.6,507.9,122.7,505.6,122.1,503.3z M86.4,484.9l-4.8-1.9
				l4.2-3.4l4.8,1.9L86.4,484.9z M100.9,473.2l-1,0.8l-2.6-1l1-0.8L100.9,473.2z M84.5,466.6l4.8,1.9l-4.2,3.4l-4.8-1.9L84.5,466.6z
				 M75.5,473.9l0.7,0.3l0.3-0.2l-0.7-0.3l1-0.8l1.9,0.8l-0.6,0.5l0.3,0.1l0.6-0.5l0.7,0.3l0.3-0.2l-2.2-0.9l1-0.8l1.5,0.6l0.3-0.2
				l-2.2-0.9l1-0.8l1.5,0.6l0.6-0.5l2.6,1l-0.6,0.5l0.3,0.1l0.6-0.5l0.7,0.3l1.3-1l1.9,0.8l-1,0.8l-0.7-0.3l-0.9,0.8l0.3,0.1
				l0.6-0.5l2.9,1.2l0.3-0.2l-0.7-0.3l0.6-0.5l-1.5-0.6l0.6-0.5l-2.2-0.9l1-0.8l0.7,0.3l0.9-0.8l-0.7-0.3l1-0.8l1.1,0.5l-0.6,0.5
				l0.7,0.3l-0.6,0.5l0.3,0.1l1.3-1l1.9,0.8l-2.3,1.9l-1.1-0.5l0.6-0.5l-0.3-0.1l-0.9,0.8l1.5,0.6l-0.6,0.5l0.3,0.1l0.6-0.5l0.7,0.3
				l0.6-0.5l0.7,0.3l0.3-0.2l-1.5-0.6l1-0.8l0.7,0.3l0.6-0.5l1.9,0.8l-0.6,0.5l1.5,0.6l-0.6,0.5l1.5,0.6l-0.6,0.5l0.3,0.1l0.6-0.5
				l1.1,0.5l-1,0.8l-0.7-0.3l-0.6,0.5l-1.5-0.6l-0.9,0.8l2.2,0.9l-1,0.8l-2.9-1.2l-0.9,0.8l1,0.4l0.6-0.5L95,477l-0.6,0.5l0.8,0.3
				l-1,0.8l-1.5-0.6l-1.9,1.6l-0.7-0.3l-0.3,0.2l2.2,0.9l-1,0.8l-4.8-1.9l1-0.8l1.5,0.6l0.3-0.2l-0.7-0.3l2.6-2.1l-0.3-0.1l-0.6,0.5
				l-0.7-0.3l-0.3,0.2l0.7,0.3l-1,0.8l-0.7-0.3l-1.3,1l-0.7-0.3l-0.3,0.2l0.7,0.3l-1,0.8l-0.7-0.3l-0.6,0.5l-2.9-1.2l-0.3,0.2
				l2.2,0.9l-1.3,1l0.3,0.1l1.3-1l1.1,0.5l-2.3,1.8l-0.7-0.3l-0.6,0.5l-1.1-0.5l0.6-0.5l-0.7-0.3l0.6-0.5l-0.3-0.1l-1.3,1l-1.1-0.5
				l0.6-0.5l-0.7-0.3l0.6-0.5l-0.3-0.1l-0.6,0.5l-1.1-0.5l1-0.8l0.7,0.3l0.3-0.2l-0.7-0.3l2.3-1.8l0.7,0.3l0.6-0.5l1.1,0.5l-0.6,0.5
				l1,0.4l0.3-0.2l-0.7-0.3l0.6-0.5l-2.2-0.9l0.6-0.5l-0.7-0.3l0.6-0.5l-1-0.4l-0.3,0.2l0.7,0.3l-0.6,0.5l0.7,0.3l-1,0.8l-1.1-0.5
				l0.6-0.5l-0.3-0.1l-0.6,0.5l-1.1-0.5l0.6-0.5l-1-0.4l-0.6,0.5l-1.1-0.5L75.5,473.9z M74.2,474.9l4.8,1.9l-4.2,3.4l-4.8-1.9
				L74.2,474.9z M56.4,466.4c0.8-0.6,2-0.4,2.6,0.4c0.6,0.8,0.4,2-0.4,2.6c-9.6,7.1-12.7,8.4-13,8.5c-0.2,0.1-0.3,0.1-0.5,0.1
				c-0.8,0.1-1.6-0.4-1.9-1.1c-0.4-0.9,0.1-2,1-2.4C44.3,474.5,47.3,473.2,56.4,466.4z M52,460.9c-10,8.5-16.6,10.9-16.9,11
				c-0.1,0-0.3,0.1-0.4,0.1c-0.8,0.1-1.6-0.4-1.9-1.2c-0.3-1,0.2-2,1.1-2.3c0.1,0,6.3-2.3,15.7-10.3c0.8-0.7,1.9-0.6,2.6,0.2
				C52.8,459.1,52.7,460.2,52,460.9z M26.2,465.7c-0.2,0.1-0.4,0.1-0.6,0.2c-0.8,0.1-1.5-0.3-1.9-1c-0.4-0.9,0-2,0.9-2.4
				c0.2-0.1,16.2-7.8,23.3-15.2c0.7-0.7,1.9-0.8,2.6-0.1c0.7,0.7,0.8,1.9,0.1,2.6C43,457.6,26.8,465.3,26.2,465.7z M70.2,515
				L14,491.4c-1-0.4-1-1.9,0.1-2.3l22.9-7.4c16.1,8.9,32.2,17.6,35,18.2c4.1-1,8.8-3.5,13.5-6.8l19.5,7L70.2,515z M89.4,512.7
				l-3.1-1.3l16.9-7.3l3.3,1.2L89.4,512.7z"/>
			<polygon class="st0" points="81.4,473.1 82.2,473.4 81.5,473.9 82.5,474.4 83.5,473.6 82,473 82.7,472.5 81.6,472.1 81.3,472.3 
				82.1,472.6 			"/>
			<path class="st0" d="M74.4,476.1l-2.3,1.8l2.5,1l2.3-1.8L74.4,476.1z M74.6,478.6l-1.9-0.8l1.6-1.3l1.9,0.8L74.6,478.6z"/>
			<polygon class="st0" points="82,475.3 81.7,475.6 82.7,476 83.4,475.5 84.8,476 85.1,475.8 84.4,475.5 85,475 84,474.6 
				82.7,475.6 			"/>
			<polygon class="st0" points="86.6,476.4 86.3,476.3 86,476.5 86.3,476.6 			"/>
			<polygon class="st0" points="83.6,477.9 84.5,477.1 83.5,476.7 83.2,477 83.9,477.3 83.3,477.8 			"/>
			<polygon class="st0" points="83.4,478.6 84.4,479 84.7,478.8 83.7,478.4 			"/>
			<polygon class="st0" points="84.9,473.4 84.5,473.2 84.2,473.5 84.6,473.6 			"/>
		</g>
	</g>
	<g>
		<path class="st0" d="M225.6,432.3l6.5,1.2l2.2,0.4l6.5,1.2c3.9,0.7,7.5-1.9,8.2-5.8c0.7-3.9-1.9-7.5-5.8-8.2l-6.5-1.2l-2.2-0.4
			l-6.5-1.2c-3.9-0.7-7.5,1.9-8.2,5.8C219.1,428,221.7,431.6,225.6,432.3z M236.4,422.1l6.6,1.2c2.6,0.4,4.4,3,3.9,5.6
			c-0.4,2.6-2.9,4.3-5.6,3.9l-6.5-1.2L236.4,422.1z"/>
		<path class="st0" d="M192.2,456.1c-1.1-0.1-2,0.2-2.1,0.7c0,0.4,0.9,0.8,2,0.9c1.1,0.1,2-0.2,2.1-0.7
			C194.2,456.5,193.3,456.1,192.2,456.1z"/>
		<g>
			<polygon class="st0" points="242.2,445 241.4,444.7 241.2,444.9 242,445.2 			"/>
			<polygon class="st0" points="243.9,444.8 245,445.3 245.2,445.1 244.7,444.9 245.1,444.5 244.4,444.2 243.5,444.9 242.9,444.7 
				242.7,444.9 243.5,445.2 			"/>
			<polygon class="st0" points="241.8,445.7 242.3,445.9 241.9,446.2 242.1,446.3 242.5,446 243.1,446.2 243.7,445.6 243.5,445.5 
				243.1,445.9 242,445.5 			"/>
			<polygon class="st0" points="241.3,446.3 240.8,446.1 241.3,445.7 240.5,445.4 240.1,445.8 240.1,445.8 239.8,446 241.1,446.5 
							"/>
			<polygon class="st0" points="238,447.5 238.2,447.6 238.4,447.4 238.2,447.3 			"/>
			<polygon class="st0" points="238.3,445.9 238.6,446 239.2,445.5 238.5,445.2 238.3,445.4 238.8,445.6 			"/>
			<path class="st0" d="M238.2,452l1.6-1.3L238,450l-1.6,1.3L238.2,452z M238,450.3l1.3,0.5l-1.2,0.9l-1.3-0.5L238,450.3z"/>
			<polygon class="st0" points="240.6,448.5 240.8,448.6 241.5,448.1 241.3,448 			"/>
			<path class="st0" d="M237,440.7l-1.6,1.3l1.8,0.7l1.6-1.3L237,440.7z M237.2,442.4l-1.3-0.5l1.2-0.9l1.3,0.5L237.2,442.4z"/>
			<polygon class="st0" points="232.6,448.7 232.9,448.8 234,447.8 233.8,447.8 			"/>
			<path class="st0" d="M263.8,466.1c-0.3-1-1.1-1.8-2.2-2.2l-20.7-7.5c8.1-6.2,15.5-14.1,15.5-14.1c-4.3-0.5-10.6-1.8-17.4-4.4
				c0,0,0,0-0.1,0l-15.3-2.7c-5.4-1-9-6.1-8-11.4c0.1-0.3,0.1-0.6,0.2-0.9c-1.9-2-3.8-4.1-5.6-6.5c0,0,0,0,0,0
				c-15.2,15-32.5,19.9-32.7,20c0,0,0,0,0,0c0,0,10.2,5.8,21.4,12.1l-15.6,5c-1.3,0.4-2.3,1.5-2.4,2.8c-0.2,1.5,0.6,2.8,2,3.4
				l51.6,21.7c0.4,0.1,0.7,0.2,1.1,0.3c0.5,0,1-0.1,1.5-0.3L262,470C263.4,469.3,264.2,467.7,263.8,466.1z M238.3,452.9l-3.4-1.4
				l3-2.4l3.4,1.4L238.3,452.9z M248.7,444.5l-0.7,0.6l-1.9-0.7l0.7-0.6L248.7,444.5z M236.9,439.8l3.4,1.4l-3,2.4l-3.4-1.4
				L236.9,439.8z M230.5,445l0.5,0.2l0.2-0.2l-0.5-0.2l0.7-0.6l1.3,0.5l-0.5,0.4l0.2,0.1l0.5-0.4l0.5,0.2l0.2-0.2l-1.6-0.6l0.7-0.6
				l1,0.4l0.2-0.2l-1.6-0.6l0.7-0.6l1,0.4l0.5-0.4l1.9,0.7l-0.5,0.4l0.2,0.1l0.5-0.4l0.5,0.2l0.9-0.7l1.3,0.5l-0.7,0.6l-0.5-0.2
				l-0.7,0.5l0.2,0.1l0.5-0.4l2.1,0.8l0.2-0.2l-0.5-0.2l0.5-0.4l-1-0.4l0.5-0.4l-1.6-0.6l0.7-0.6l0.5,0.2l0.7-0.5l-0.5-0.2l0.7-0.6
				l0.8,0.3l-0.5,0.4l0.5,0.2l-0.5,0.4l0.2,0.1l0.9-0.7l1.3,0.5l-1.6,1.3l-0.8-0.3l0.5-0.4l-0.2-0.1l-0.7,0.5l1,0.4l-0.5,0.4
				l0.2,0.1l0.5-0.4l0.5,0.2l0.5-0.4l0.5,0.2l0.2-0.2l-1-0.4l0.7-0.6l0.5,0.2l0.5-0.4l1.3,0.5l-0.5,0.4l1,0.4l-0.5,0.4l1,0.4
				l-0.5,0.4l0.2,0.1l0.5-0.4l0.8,0.3l-0.7,0.6l-0.5-0.2l-0.5,0.4l-1-0.4l-0.7,0.5l1.6,0.6l-0.7,0.6l-2.1-0.8l-0.7,0.5l0.7,0.3
				l0.5-0.4l0.8,0.3l-0.5,0.4l0.6,0.2l-0.7,0.6l-1-0.4l-1.4,1.1l-0.5-0.2l-0.2,0.2l1.6,0.6l-0.7,0.6l-3.4-1.4l0.7-0.6l1,0.4l0.2-0.2
				l-0.5-0.2l1.8-1.5l-0.2-0.1l-0.5,0.4l-0.5-0.2l-0.2,0.2l0.5,0.2l-0.7,0.6l-0.5-0.2l-0.9,0.7l-0.5-0.2l-0.2,0.2l0.5,0.2l-0.7,0.6
				l-0.5-0.2l-0.5,0.4l-2.1-0.8l-0.2,0.2l1.6,0.6l-0.9,0.7l0.2,0.1l0.9-0.7l0.8,0.3l-1.6,1.3l-0.5-0.2l-0.5,0.4l-0.8-0.3l0.5-0.4
				l-0.5-0.2l0.5-0.4l-0.2-0.1l-0.9,0.7l-0.8-0.3l0.5-0.4l-0.5-0.2l0.5-0.4l-0.2-0.1l-0.5,0.4l-0.8-0.3l0.7-0.6l0.5,0.2l0.2-0.2
				l-0.5-0.2l1.6-1.3l0.5,0.2l0.5-0.4l0.8,0.3l-0.5,0.4l0.7,0.3l0.2-0.2l-0.5-0.2l0.5-0.4l-1.6-0.6l0.5-0.4l-0.5-0.2l0.5-0.4
				l-0.7-0.3l-0.2,0.2l0.5,0.2l-0.5,0.4l0.5,0.2l-0.7,0.6l-0.8-0.3l0.5-0.4l-0.2-0.1l-0.5,0.4l-0.8-0.3l0.5-0.4l-0.7-0.3l-0.5,0.4
				l-0.8-0.3L230.5,445z M229.6,445.8l3.4,1.4l-3,2.4l-3.4-1.4L229.6,445.8z M216.8,439.7c0.6-0.4,1.4-0.3,1.8,0.3
				c0.4,0.6,0.3,1.4-0.3,1.8c-6.9,5.1-9.1,6-9.3,6.1c-0.1,0-0.2,0.1-0.3,0.1c-0.6,0.1-1.1-0.3-1.4-0.8c-0.3-0.7,0-1.4,0.7-1.7
				C208.1,445.5,210.3,444.5,216.8,439.7z M213.6,435.7c-7.2,6.1-11.9,7.8-12.1,7.9c-0.1,0-0.2,0.1-0.3,0.1
				c-0.6,0.1-1.2-0.3-1.4-0.9c-0.2-0.7,0.1-1.4,0.8-1.7c0,0,4.5-1.6,11.2-7.4c0.6-0.5,1.4-0.4,1.9,0.1
				C214.3,434.4,214.2,435.3,213.6,435.7z M195.2,439.1c-0.1,0.1-0.3,0.1-0.4,0.1c-0.5,0.1-1.1-0.2-1.3-0.7c-0.3-0.7,0-1.4,0.6-1.8
				c0.1-0.1,11.6-5.6,16.6-10.8c0.5-0.5,1.3-0.5,1.9,0c0.5,0.5,0.5,1.3,0,1.9C207.2,433.4,195.7,438.9,195.2,439.1z M226.7,474.4
				l-40.2-16.9c-0.7-0.3-0.7-1.4,0.1-1.6l16.4-5.3c11.5,6.4,23,12.6,25,13c2.9-0.7,6.3-2.5,9.7-4.8l13.9,5L226.7,474.4z
				 M240.4,472.7l-2.2-0.9l12.1-5.2l2.4,0.9L240.4,472.7z"/>
			<polygon class="st0" points="234.7,444.5 235.2,444.7 234.8,445.1 235.5,445.4 236.2,444.8 235.1,444.4 235.6,444 234.9,443.7 
				234.6,443.9 235.2,444.1 			"/>
			<path class="st0" d="M229.7,446.6l-1.6,1.3l1.8,0.7l1.6-1.3L229.7,446.6z M229.9,448.4l-1.3-0.5l1.2-0.9l1.3,0.5L229.9,448.4z"/>
			<polygon class="st0" points="235.1,446 234.9,446.2 235.6,446.5 236.1,446.1 237.1,446.6 237.3,446.4 236.8,446.2 237.3,445.8 
				236.5,445.5 235.6,446.3 			"/>
			<polygon class="st0" points="238.4,446.8 238.2,446.7 237.9,446.9 238.2,447 			"/>
			<polygon class="st0" points="236.3,447.9 236.9,447.3 236.2,447 236,447.2 236.5,447.4 236,447.8 			"/>
			<polygon class="st0" points="236.1,448.4 236.8,448.7 237.1,448.5 236.3,448.2 			"/>
			<polygon class="st0" points="237.2,444.6 236.9,444.6 236.7,444.7 237,444.8 			"/>
		</g>
	</g>
	<g>
		<path class="st0" d="M228.8,104.5l17.8,3.2l6.1,1l17.8,3.2c10.6,1.9,20.6-5.3,22.5-15.8c1.9-10.6-5.3-20.6-15.8-22.5l-17.8-3.2
			l-6.1-1l-17.8-3.2c-10.6-1.9-20.6,5.3-22.5,15.8C211.1,92.6,218.2,102.6,228.8,104.5z M258.3,76.4l17.9,3.3
			c7,1.2,12,8.1,10.6,15.2c-1.2,7-8,11.8-15.2,10.6l-17.8-3.2L258.3,76.4z"/>
		<path class="st0" d="M137.6,169.3c-3-0.1-5.6,0.7-5.6,1.8c-0.1,1.1,2.4,2.2,5.4,2.3c3,0.1,5.6-0.7,5.6-1.8
			C143,170.5,140.6,169.5,137.6,169.3z"/>
		<g>
			<polygon class="st0" points="274.1,139 272,138.2 271.5,138.7 273.5,139.5 			"/>
			<polygon class="st0" points="278.8,138.6 281.7,139.8 282.3,139.3 280.8,138.7 282.1,137.7 280.1,136.9 277.6,138.9 276.1,138.4 
				275.6,138.8 277.6,139.6 			"/>
			<polygon class="st0" points="273,140.9 274.5,141.4 273.2,142.5 273.8,142.7 275.1,141.7 276.5,142.3 278.3,140.8 277.7,140.5 
				276.5,141.5 273.6,140.4 			"/>
			<polygon class="st0" points="271.7,142.7 270.3,142.1 271.6,141.1 269.5,140.3 268.3,141.3 268.3,141.3 267.7,141.8 271.1,143.2 
							"/>
			<polygon class="st0" points="262.7,145.8 263.3,146.1 263.9,145.6 263.3,145.4 			"/>
			<polygon class="st0" points="263.6,141.6 264.2,141.9 266.1,140.4 264,139.6 263.4,140 264.9,140.6 			"/>
			<path class="st0" d="M263.2,158.3l4.4-3.6l-5-2l-4.4,3.6L263.2,158.3z M262.7,153.5l3.6,1.5l-3.2,2.6l-3.7-1.5L262.7,153.5z"/>
			<polygon class="st0" points="269.8,148.7 270.4,148.9 272.2,147.5 271.6,147.2 			"/>
			<path class="st0" d="M260,127.2l-4.4,3.6l5,2l4.4-3.6L260,127.2z M260.5,132.1l-3.6-1.5l3.2-2.6l3.6,1.5L260.5,132.1z"/>
			<polygon class="st0" points="248.1,149.1 248.7,149.3 251.8,146.8 251.1,146.6 			"/>
			<path class="st0" d="M333.1,196.6c-0.8-2.8-3.1-5-5.9-6l-56.6-20.4c22.2-17,42.3-38.5,42.3-38.5c-11.8-1.3-28.8-4.8-47.4-12.1
				c-0.1,0-0.1,0-0.2,0l-41.8-7.4c-14.6-2.6-24.4-16.6-21.8-31.2c0.1-0.8,0.3-1.6,0.6-2.4c-5.3-5.4-10.4-11.3-15.2-17.7c0,0,0,0,0,0
				c-41.6,41.1-88.8,54.3-89.3,54.5c0,0,0,0,0,0c0,0,27.8,15.9,58.5,33l-42.6,13.6c-3.5,1.1-6.3,4-6.7,7.7c-0.4,4,1.8,7.6,5.4,9.2
				l140.7,59.1c1,0.4,2,0.6,3,0.7c1.4,0.1,2.8-0.2,4.1-0.8l68-30.7C332.2,205.5,334.3,201.1,333.1,196.6z M263.5,160.7l-9.3-3.8
				l8.2-6.7l9.3,3.8L263.5,160.7z M291.8,137.7l-1.9,1.6l-5.1-2l1.9-1.6L291.8,137.7z M259.8,124.8l9.3,3.8l-8.2,6.7l-9.3-3.8
				L259.8,124.8z M242.2,139.1l1.4,0.6l0.6-0.5l-1.4-0.6l1.9-1.6l3.7,1.5l-1.3,1l0.6,0.2l1.3-1l1.4,0.6l0.6-0.5l-4.3-1.7l1.9-1.6
				l2.8,1.1l0.6-0.5l-4.3-1.7l1.9-1.6l2.8,1.1l1.3-1l5.1,2l-1.3,1l0.6,0.2l1.3-1l1.4,0.6l2.5-2l3.6,1.5l-1.9,1.6l-1.4-0.6l-1.8,1.5
				l0.6,0.2l1.3-1l5.7,2.3l0.6-0.5l-1.4-0.6l1.3-1l-2.8-1.1l1.3-1l-4.3-1.7l1.9-1.6l1.4,0.6l1.8-1.5l-1.4-0.6l1.9-1.6l2.2,0.9
				l-1.3,1l1.4,0.6l-1.3,1l0.6,0.2l2.5-2l3.6,1.5l-4.5,3.6l-2.2-0.9l1.3-1l-0.6-0.2l-1.8,1.5l2.8,1.1l-1.3,1l0.6,0.2l1.3-1l1.4,0.6
				l1.3-1l1.4,0.6l0.6-0.5l-2.8-1.1l1.9-1.6l1.4,0.6l1.3-1l3.6,1.5l-1.3,1l2.8,1.1l-1.3,1l2.8,1.1l-1.3,1l0.6,0.2l1.3-1l2.2,0.9
				l-1.9,1.6l-1.4-0.6l-1.3,1l-2.8-1.1l-1.8,1.5l4.3,1.7l-1.9,1.6l-5.7-2.3l-1.8,1.5l1.9,0.8l1.3-1l2.2,0.9l-1.3,1l1.6,0.6l-1.9,1.6
				l-2.8-1.1l-3.8,3.1l-1.4-0.6l-0.6,0.5l4.3,1.7l-1.9,1.6l-9.3-3.8l1.9-1.6l2.8,1.1l0.6-0.5l-1.4-0.6l5-4.1l-0.6-0.3l-1.3,1
				l-1.4-0.6l-0.6,0.5l1.4,0.6l-1.9,1.6l-1.4-0.6l-2.5,2l-1.4-0.6l-0.6,0.5l1.4,0.6l-1.9,1.6l-1.4-0.6l-1.3,1l-5.7-2.3l-0.6,0.5
				l4.3,1.7l-2.5,2l0.6,0.2l2.5-2l2.2,0.9l-4.4,3.6l-1.4-0.6l-1.3,1l-2.2-0.9l1.3-1l-1.4-0.6l1.3-1l-0.6-0.2l-2.5,2l-2.2-0.9l1.3-1
				l-1.4-0.6l1.3-1l-0.6-0.2l-1.3,1l-2.2-0.9l1.9-1.6l1.4,0.6l0.6-0.5l-1.4-0.6l4.4-3.6l1.4,0.6l1.3-1l2.2,0.9l-1.3,1l2,0.8l0.6-0.5
				l-1.4-0.6l1.3-1l-4.3-1.7l1.3-1l-1.4-0.6l1.3-1l-2-0.8l-0.6,0.5l1.4,0.6l-1.3,1l1.4,0.6l-1.9,1.6l-2.2-0.9l1.3-1l-0.6-0.2l-1.3,1
				l-2.2-0.9l1.3-1l-2-0.8l-1.3,1l-2.2-0.9L242.2,139.1z M239.7,141.1l9.3,3.8l-8.2,6.7l-9.3-3.8L239.7,141.1z M204.8,124.6
				c1.6-1.2,3.8-0.8,5,0.8c1.2,1.6,0.8,3.8-0.8,5c-18.7,13.8-24.7,16.4-25.3,16.7c-0.3,0.1-0.6,0.2-0.9,0.2
				c-1.6,0.2-3.1-0.7-3.7-2.2c-0.7-1.8,0.1-3.9,2-4.7C181.1,140.3,187,137.7,204.8,124.6z M196.2,113.8
				c-19.5,16.7-32.4,21.3-32.9,21.5c-0.3,0.1-0.5,0.2-0.8,0.2c-1.6,0.2-3.2-0.8-3.8-2.4c-0.7-1.9,0.3-3.9,2.2-4.6
				c0.1,0,12.3-4.5,30.7-20.2c1.5-1.3,3.8-1.1,5.1,0.4C197.8,110.2,197.7,112.5,196.2,113.8z M145.8,123.1c-0.4,0.2-0.8,0.3-1.1,0.3
				c-1.5,0.2-3-0.6-3.6-2c-0.9-1.8-0.1-3.9,1.7-4.8c0.3-0.2,31.7-15.2,45.5-29.6c1.4-1.4,3.6-1.5,5.1-0.1c1.4,1.4,1.5,3.6,0.1,5.1
				C178.7,107.3,147.1,122.4,145.8,123.1z M231.7,219.3l-109.7-46.1c-2-0.9-1.9-3.8,0.2-4.4l44.8-14.3
				c31.4,17.4,62.8,34.3,68.3,35.4c8-1.9,17.2-6.9,26.4-13.2l38.1,13.7L231.7,219.3z M269.3,214.8l-6.1-2.5L296,198l6.5,2.3
				L269.3,214.8z"/>
			<polygon class="st0" points="253.7,137.6 255.1,138.2 253.9,139.2 255.9,140 257.7,138.6 254.9,137.4 256.1,136.4 254.1,135.6 
				253.5,136 254.9,136.6 			"/>
			<path class="st0" d="M239.9,143.5l-4.4,3.6l5,2l4.4-3.6L239.9,143.5z M240.4,148.4l-3.6-1.5l3.2-2.6l3.6,1.5L240.4,148.4z"/>
			<polygon class="st0" points="254.8,141.9 254.2,142.4 256.2,143.2 257.5,142.2 260.3,143.3 260.9,142.9 259.5,142.3 260.7,141.3 
				258.7,140.5 256.2,142.5 			"/>
			<polygon class="st0" points="263.7,144 263.1,143.8 262.5,144.3 263.1,144.5 			"/>
			<polygon class="st0" points="257.9,147 259.8,145.5 257.7,144.7 257.2,145.1 258.6,145.7 257.3,146.7 			"/>
			<polygon class="st0" points="257.5,148.3 259.5,149.1 260.1,148.7 258.1,147.9 			"/>
			<polygon class="st0" points="260.4,138.1 259.8,137.9 259.2,138.3 259.8,138.6 			"/>
		</g>
	</g>
	<g>
		<path class="st0" d="M476.7,43.2l14.8,2.6l5.1,0.9l14.8,2.6c8.8,1.6,17.1-4.4,18.7-13.1c1.6-8.8-4.4-17.1-13.1-18.7L502.2,15
			l-5.1-0.9l-14.8-2.6c-8.8-1.6-17.1,4.4-18.7,13.1C462.1,33.4,467.9,41.7,476.7,43.2z M501.3,19.9l14.9,2.8c5.9,1,10,6.7,8.8,12.6
			c-1,5.9-6.6,9.8-12.6,8.8l-14.8-2.6L501.3,19.9z"/>
		<path class="st0" d="M401,97.1c-2.5-0.1-4.6,0.5-4.7,1.5c0,0.9,2,1.8,4.5,1.9c2.5,0.1,4.6-0.5,4.7-1.5
			C405.5,98.1,403.5,97.2,401,97.1z"/>
		<g>
			<polygon class="st0" points="514.4,71.9 512.7,71.3 512.2,71.7 513.9,72.3 			"/>
			<polygon class="st0" points="518.3,71.6 520.7,72.5 521.2,72.2 520,71.7 521,70.8 519.4,70.2 517.3,71.8 516.1,71.4 515.6,71.8 
				517.3,72.4 			"/>
			<polygon class="st0" points="513.5,73.5 514.7,73.9 513.7,74.8 514.2,75 515.2,74.1 516.4,74.6 517.9,73.4 517.4,73.2 516.4,74 
				514,73.1 			"/>
			<polygon class="st0" points="512.4,75 511.2,74.5 512.3,73.6 510.6,73 509.6,73.8 509.6,73.8 509.1,74.2 511.9,75.4 			"/>
			<polygon class="st0" points="504.9,77.6 505.4,77.8 505.9,77.4 505.4,77.2 			"/>
			<polygon class="st0" points="505.7,74.1 506.2,74.3 507.7,73.1 506,72.4 505.5,72.8 506.7,73.3 			"/>
			<path class="st0" d="M505.3,88l3.7-3l-4.1-1.7l-3.7,3L505.3,88z M504.9,83.9l3,1.2l-2.7,2.2l-3-1.2L504.9,83.9z"/>
			<polygon class="st0" points="510.8,80 511.3,80.2 512.8,78.9 512.3,78.7 			"/>
			<path class="st0" d="M502.7,62.1l-3.7,3l4.1,1.7l3.7-3L502.7,62.1z M503.1,66.1l-3-1.2l2.7-2.2l3,1.2L503.1,66.1z"/>
			<polygon class="st0" points="492.8,80.3 493.3,80.5 495.8,78.4 495.3,78.2 			"/>
			<path class="st0" d="M563.4,119.8c-0.7-2.4-2.6-4.1-4.9-5l-47-16.9c18.5-14.1,35.1-32,35.1-32c-9.8-1.1-23.9-4-39.4-10
				c0,0-0.1,0-0.1,0l-34.7-6.2c-12.2-2.2-20.3-13.8-18.1-25.9c0.1-0.7,0.3-1.3,0.5-2c-4.4-4.5-8.6-9.4-12.6-14.7c0,0,0,0,0,0
				c-34.6,34.1-73.7,45.1-74.2,45.3c0,0,0,0,0,0c0,0,23.1,13.2,48.6,27.4l-35.4,11.3c-2.9,0.9-5.2,3.4-5.5,6.4
				c-0.4,3.3,1.5,6.3,4.5,7.6l116.9,49.1c0.8,0.3,1.6,0.5,2.5,0.6c1.2,0.1,2.3-0.2,3.4-0.6l56.5-25.5
				C562.6,127.1,564.4,123.5,563.4,119.8z M505.6,90l-7.7-3.1l6.8-5.5l7.7,3.1L505.6,90z M529.1,70.9l-1.6,1.3l-4.2-1.7l1.6-1.3
				L529.1,70.9z M502.5,60.1l7.7,3.1l-6.8,5.5l-7.7-3.1L502.5,60.1z M487.9,72l1.2,0.5l0.5-0.4l-1.2-0.5l1.6-1.3l3,1.2l-1,0.8
				l0.5,0.2l1-0.8l1.2,0.5l0.5-0.4l-3.5-1.4l1.6-1.3l2.4,1l0.5-0.4l-3.5-1.4l1.6-1.3l2.4,1l1-0.8l4.2,1.7l-1,0.8l0.5,0.2l1-0.8
				l1.2,0.5l2.1-1.7l3,1.2l-1.6,1.3l-1.2-0.5l-1.5,1.2l0.5,0.2l1-0.8l4.7,1.9l0.5-0.4l-1.2-0.5l1-0.8l-2.4-0.9l1-0.8l-3.5-1.4
				l1.6-1.3l1.2,0.5l1.5-1.2l-1.2-0.5l1.6-1.3l1.9,0.7l-1,0.8l1.2,0.5l-1,0.8l0.5,0.2l2.1-1.7l3,1.2l-3.7,3l-1.8-0.7l1-0.8l-0.5-0.2
				l-1.5,1.2l2.4,1l-1,0.8l0.5,0.2l1-0.8l1.2,0.5l1-0.8l1.2,0.5l0.5-0.4l-2.4-1l1.6-1.3l1.2,0.5l1-0.8l3,1.2l-1,0.8l2.4,1l-1,0.8
				l2.4,1l-1,0.8l0.5,0.2l1-0.8l1.9,0.7l-1.6,1.3l-1.2-0.5l-1,0.8l-2.4-0.9l-1.5,1.2l3.5,1.4l-1.6,1.3l-4.7-1.9l-1.5,1.2l1.6,0.6
				l1-0.8l1.9,0.7l-1,0.8l1.3,0.5l-1.6,1.3l-2.4-1l-3.1,2.5l-1.2-0.5l-0.5,0.4l3.5,1.4l-1.6,1.3l-7.7-3.1l1.6-1.3l2.4,1l0.5-0.4
				l-1.2-0.5l4.2-3.4l-0.5-0.2l-1,0.8l-1.2-0.5l-0.5,0.4l1.2,0.5l-1.6,1.3l-1.2-0.5l-2.1,1.7l-1.2-0.5l-0.5,0.4l1.2,0.5l-1.6,1.3
				l-1.2-0.5l-1,0.8l-4.7-1.9l-0.5,0.4l3.5,1.4l-2.1,1.7l0.5,0.2l2.1-1.7l1.9,0.7l-3.7,3l-1.2-0.5l-1,0.8l-1.8-0.7l1-0.8l-1.2-0.5
				l1-0.8l-0.5-0.2l-2.1,1.7l-1.8-0.7l1-0.8l-1.2-0.5l1-0.8l-0.5-0.2l-1,0.8l-1.8-0.7l1.6-1.3l1.2,0.5l0.5-0.4l-1.2-0.5l3.7-3
				l1.2,0.5l1-0.8l1.9,0.7l-1,0.8l1.7,0.7l0.5-0.4l-1.2-0.5l1-0.9l-3.5-1.4l1-0.8l-1.2-0.5l1-0.8l-1.7-0.7l-0.5,0.4l1.2,0.5l-1,0.8
				l1.2,0.5l-1.6,1.3l-1.9-0.7l1-0.8l-0.5-0.2l-1,0.8l-1.9-0.7l1-0.8l-1.7-0.7l-1,0.9l-1.8-0.7L487.9,72z M485.8,73.7l7.7,3.1
				l-6.8,5.5l-7.7-3.1L485.8,73.7z M456.8,59.9c1.3-1,3.2-0.7,4.2,0.6c1,1.3,0.7,3.2-0.6,4.2c-15.6,11.5-20.5,13.6-21.1,13.9
				c-0.3,0.1-0.5,0.2-0.8,0.2c-1.3,0.1-2.6-0.6-3.1-1.8c-0.6-1.5,0.1-3.2,1.6-3.9C437.1,73,442,70.8,456.8,59.9z M449.6,50.9
				c-16.2,13.9-26.9,17.7-27.4,17.8c-0.2,0.1-0.4,0.1-0.7,0.1c-1.4,0.2-2.7-0.6-3.1-2c-0.5-1.6,0.3-3.2,1.8-3.8
				c0.1,0,10.2-3.7,25.5-16.7c1.3-1.1,3.1-0.9,4.2,0.3C451,48,450.9,49.9,449.6,50.9z M407.8,58.7c-0.3,0.1-0.6,0.2-1,0.3
				c-1.2,0.1-2.5-0.5-3-1.7c-0.7-1.5-0.1-3.3,1.4-4c0.3-0.1,26.3-12.6,37.8-24.6c1.1-1.2,3-1.2,4.2-0.1c1.2,1.1,1.2,3,0.1,4.2
				C435.1,45.6,408.9,58.2,407.8,58.7z M479.2,138.7l-91.1-38.3c-1.7-0.7-1.6-3.1,0.2-3.7l37.2-11.9c26.1,14.4,52.2,28.5,56.7,29.5
				c6.6-1.6,14.3-5.7,22-11l31.6,11.4L479.2,138.7z M510.4,134.9l-5.1-2.1l27.4-11.9l5.4,1.9L510.4,134.9z"/>
			<polygon class="st0" points="497.4,70.8 498.6,71.3 497.6,72.1 499.2,72.8 500.8,71.5 498.4,70.6 499.5,69.7 497.8,69.1 
				497.3,69.5 498.5,69.9 			"/>
			<path class="st0" d="M486,75.7l-3.7,3l4.1,1.7l3.7-3L486,75.7z M486.4,79.7l-3-1.2l2.7-2.2l3,1.2L486.4,79.7z"/>
			<polygon class="st0" points="498.3,74.4 497.8,74.7 499.5,75.4 500.6,74.6 502.9,75.5 503.4,75.1 502.2,74.7 503.3,73.8 
				501.6,73.1 499.5,74.8 			"/>
			<polygon class="st0" points="505.8,76.1 505.2,75.9 504.8,76.3 505.3,76.5 			"/>
			<polygon class="st0" points="501,78.5 502.5,77.3 500.8,76.6 500.3,77 501.5,77.5 500.5,78.3 			"/>
			<polygon class="st0" points="500.6,79.7 502.3,80.3 502.8,79.9 501.1,79.3 			"/>
			<polygon class="st0" points="503,71.2 502.5,71 502,71.4 502.5,71.6 			"/>
		</g>
	</g>
	<g>
		<path class="st0" d="M426.2,296.1l23.5,4.2l8.1,1.4l23.5,4.2c13.9,2.5,27.1-7,29.6-20.8c2.5-13.9-7-27.1-20.8-29.6l-23.5-4.2
			l-8.1-1.4l-23.5-4.2c-13.9-2.5-27.1,7-29.6,20.8C403,280.4,412.3,293.6,426.2,296.1z M465.2,259.1l23.6,4.4
			c9.3,1.6,15.8,10.6,14,20c-1.6,9.3-10.5,15.5-20,14l-23.5-4.2L465.2,259.1z"/>
		<path class="st0" d="M306.2,381.4c-4-0.2-7.3,0.9-7.4,2.4c-0.1,1.5,3.1,2.9,7.1,3.1c4,0.2,7.3-0.9,7.4-2.4
			C313.4,382.9,310.2,381.6,306.2,381.4z"/>
		<g>
			<polygon class="st0" points="485.9,341.5 483.2,340.5 482.4,341.1 485.1,342.2 			"/>
			<polygon class="st0" points="492.2,341 495.9,342.5 496.7,341.9 494.8,341.1 496.4,339.8 493.8,338.7 490.5,341.4 488.6,340.6 
				487.8,341.2 490.5,342.3 			"/>
			<polygon class="st0" points="484.5,343.9 486.4,344.7 484.7,346 485.6,346.3 487.2,345 489.1,345.8 491.5,343.8 490.7,343.5 
				489,344.8 485.3,343.3 			"/>
			<polygon class="st0" points="482.8,346.3 480.9,345.6 482.6,344.2 479.9,343.1 478.3,344.5 478.2,344.5 477.5,345.1 482,346.9 
							"/>
			<polygon class="st0" points="470.9,350.5 471.7,350.8 472.5,350.2 471.7,349.9 			"/>
			<polygon class="st0" points="472.1,344.9 472.9,345.3 475.3,343.3 472.7,342.2 471.9,342.9 473.8,343.6 			"/>
			<path class="st0" d="M471.5,366.9l5.8-4.8l-6.5-2.6l-5.8,4.8L471.5,366.9z M470.9,360.5l4.8,1.9l-4.2,3.4l-4.8-1.9L470.9,360.5z"
				/>
			<polygon class="st0" points="480.2,354.2 481,354.6 483.4,352.6 482.6,352.3 			"/>
			<path class="st0" d="M467.4,326l-5.8,4.8l6.5,2.6l5.8-4.8L467.4,326z M468.1,332.3l-4.8-1.9l4.2-3.4l4.8,1.9L468.1,332.3z"/>
			<polygon class="st0" points="451.6,354.8 452.4,355.1 456.5,351.8 455.7,351.5 			"/>
			<path class="st0" d="M563.5,417.3c-1-3.7-4.1-6.6-7.7-7.9l-74.5-26.8C510.6,360.3,537,332,537,332c-15.6-1.8-37.9-6.3-62.4-15.9
				c-0.1,0-0.2,0-0.2,0l-55-9.7c-19.3-3.4-32.2-21.8-28.7-41.1c0.2-1.1,0.5-2.1,0.7-3.1c-7-7.1-13.7-14.8-20-23.4c0,0,0,0,0,0
				c-54.8,54.1-116.8,71.5-117.5,71.7c0,0,0,0,0,0c0,0,36.6,20.9,77,43.4l-56.1,18c-4.6,1.5-8.3,5.3-8.8,10.1
				c-0.6,5.3,2.3,10.1,7.1,12.1l185.2,77.8c1.3,0.5,2.6,0.8,4,0.9c1.8,0.1,3.7-0.3,5.4-1l89.5-40.5
				C562.3,429,565.2,423.2,563.5,417.3z M471.9,370.1l-12.3-4.9l10.8-8.8l12.3,4.9L471.9,370.1z M509.2,339.8l-2.5,2.1l-6.7-2.7
				l2.5-2.1L509.2,339.8z M467,322.8l12.3,4.9l-10.8,8.8l-12.3-4.9L467,322.8z M443.9,341.6l1.9,0.8l0.8-0.6l-1.9-0.8l2.5-2.1
				l4.8,1.9l-1.7,1.3l0.8,0.3l1.7-1.3l1.9,0.8l0.8-0.6l-5.6-2.3l2.5-2.1l3.7,1.5l0.8-0.6l-5.6-2.3l2.5-2.1l3.7,1.5l1.7-1.3l6.7,2.7
				l-1.7,1.3l0.8,0.3l1.7-1.3l1.9,0.8l3.3-2.7l4.8,1.9l-2.5,2.1l-1.9-0.8l-2.4,2l0.8,0.3l1.6-1.3l7.5,3l0.8-0.6l-1.9-0.8l1.7-1.3
				l-3.7-1.5l1.7-1.3l-5.6-2.3l2.5-2.1l1.9,0.8l2.4-2l-1.9-0.8l2.5-2.1l2.9,1.2l-1.7,1.3l1.9,0.8l-1.6,1.3l0.8,0.3l3.3-2.7l4.8,1.9
				l-5.9,4.8l-2.9-1.2l1.7-1.3l-0.8-0.3l-2.4,2l3.7,1.5l-1.7,1.3l0.8,0.3l1.7-1.3l1.9,0.7l1.6-1.3l1.9,0.8l0.8-0.6l-3.7-1.5l2.5-2.1
				l1.9,0.8l1.7-1.3l4.8,1.9l-1.7,1.3l3.7,1.5l-1.6,1.3l3.7,1.5l-1.7,1.3l0.8,0.3l1.7-1.3l2.9,1.2l-2.5,2.1l-1.9-0.8l-1.6,1.3
				l-3.7-1.5l-2.4,2l5.6,2.3l-2.5,2.1l-7.5-3l-2.4,2l2.5,1l1.6-1.3l2.9,1.2l-1.7,1.3l2,0.8l-2.5,2.1l-3.7-1.5l-5,4l-1.9-0.8
				l-0.8,0.6l5.6,2.3l-2.5,2.1l-12.3-4.9l2.5-2.1l3.7,1.5l0.8-0.6l-1.9-0.8l6.6-5.4l-0.8-0.3l-1.7,1.3l-1.9-0.8l-0.8,0.6l1.9,0.8
				l-2.5,2.1l-1.9-0.7l-3.3,2.7l-1.9-0.8l-0.8,0.6l1.9,0.8l-2.5,2.1l-1.9-0.8l-1.7,1.3l-7.5-3l-0.8,0.6l5.6,2.3l-3.3,2.7l0.8,0.3
				l3.3-2.7l2.9,1.2l-5.9,4.8l-1.9-0.8L457,364l-2.9-1.2l1.7-1.3l-1.9-0.8l1.7-1.3l-0.8-0.3l-3.3,2.7l-2.9-1.2l1.7-1.3l-1.9-0.8
				l1.7-1.3l-0.8-0.3l-1.6,1.3l-2.9-1.2l2.5-2.1l1.9,0.8l0.8-0.6l-1.9-0.8l5.9-4.8l1.9,0.8l1.7-1.3l2.9,1.2l-1.7,1.3l2.7,1.1
				l0.8-0.6l-1.9-0.8l1.7-1.3l-5.6-2.3l1.7-1.3l-1.9-0.8l1.6-1.3l-2.7-1.1l-0.8,0.6l1.9,0.8l-1.7,1.3l1.9,0.8l-2.5,2.1l-2.9-1.2
				l1.7-1.3l-0.8-0.3l-1.7,1.3l-2.9-1.2l1.7-1.3l-2.7-1.1l-1.7,1.3l-2.9-1.2L443.9,341.6z M440.6,344.3l12.3,4.9L442,358l-12.3-4.9
				L440.6,344.3z M394.7,322.5c2.1-1.6,5.1-1.1,6.6,1c1.5,2.1,1.1,5.1-1,6.6c-24.6,18.2-32.5,21.6-33.3,21.9
				c-0.4,0.2-0.8,0.3-1.2,0.3c-2.1,0.2-4.1-0.9-4.9-2.9c-1-2.4,0.2-5.1,2.6-6.1C363.6,343.2,371.3,339.8,394.7,322.5z M383.3,308.2
				c-25.7,21.9-42.6,28-43.4,28.3c-0.3,0.1-0.7,0.2-1,0.2c-2.1,0.2-4.2-1-5-3.1c-0.9-2.5,0.4-5.1,2.9-6c0.2-0.1,16.2-5.9,40.4-26.5
				c2-1.7,5-1.5,6.7,0.5C385.6,303.6,385.3,306.6,383.3,308.2z M317.1,320.5c-0.5,0.2-1,0.4-1.5,0.4c-1.9,0.2-3.9-0.8-4.8-2.7
				c-1.1-2.4-0.1-5.2,2.2-6.3c0.4-0.2,41.7-20,59.8-39c1.8-1.9,4.8-1.9,6.7-0.1c1.9,1.8,1.9,4.8,0.1,6.7
				C360.3,299.8,318.8,319.7,317.1,320.5z M430.2,447.2l-144.3-60.6c-2.7-1.1-2.5-4.9,0.3-5.8l59-18.9
				c41.3,22.9,82.6,45.1,89.8,46.7c10.5-2.5,22.6-9.1,34.8-17.4l50.1,18L430.2,447.2z M479.5,441.3l-8.1-3.4l43.3-18.8l8.6,3.1
				L479.5,441.3z"/>
			<polygon class="st0" points="459.1,339.7 460.9,340.4 459.3,341.8 461.9,342.8 464.3,340.9 460.6,339.4 462.3,338 459.6,337 
				458.8,337.6 460.7,338.3 			"/>
			<path class="st0" d="M441,347.5l-5.8,4.8l6.5,2.6l5.8-4.8L441,347.5z M441.6,353.8l-4.8-1.9l4.2-3.4l4.8,1.9L441.6,353.8z"/>
			<polygon class="st0" points="460.5,345.3 459.7,346 462.4,347 464,345.7 467.7,347.2 468.5,346.6 466.6,345.8 468.3,344.5 
				465.6,343.4 462.3,346.1 			"/>
			<polygon class="st0" points="472.2,348.1 471.4,347.8 470.7,348.4 471.5,348.7 			"/>
			<polygon class="st0" points="464.6,352 467.1,350 464.4,348.9 463.6,349.6 465.5,350.3 463.8,351.7 			"/>
			<polygon class="st0" points="464.1,353.8 466.7,354.8 467.5,354.2 464.8,353.1 			"/>
			<polygon class="st0" points="467.9,340.3 467,340 466.3,340.6 467.1,340.9 			"/>
		</g>
	</g>
</g>
</svg>
