<?xml version="1.0" encoding="utf-8"?>
<!-- Generator: $$$/GeneralStr/196=Adobe Illustrator 27.6.0, SVG Export Plug-In . SVG Version: 6.00 Build 0)  -->
<svg version="1.1" id="Calque_1" xmlns="http://www.w3.org/2000/svg" xmlns:xlink="http://www.w3.org/1999/xlink" x="0px" y="0px"
	 viewBox="0 0 74 74" style="enable-background:new 0 0 74 74;" xml:space="preserve">
<style type="text/css">
	.st0{opacity:0.412;}
	.st1{opacity:0.15;fill:#555EA5;enable-background:new    ;}
</style>
<g id="Groupe_76" transform="translate(-68 -703)" class="st0">
	<path id="Rectangle_23" class="st1" d="M105,777H68l0,0v-37c0-20.4,16.6-37,37-37l0,0c20.4,0,37,16.6,37,37l0,0
		C142,760.4,125.4,777,105,777z"/>
	<path id="Rectangle_24" class="st1" d="M104.5,768L77,768l0,0l0-27.5c0-15.2,12.3-27.5,27.5-27.5l0,0l0,0
		c15.2,0,27.5,12.3,27.5,27.5l0,0C132,755.7,119.7,768,104.5,768z"/>
</g>
</svg>
